<?xml version="1.0" encoding="utf-8"?>
<!-- Generator: Adobe Illustrator 18.0.0, SVG Export Plug-In . SVG Version: 6.00 Build 0)  -->
<!DOCTYPE svg PUBLIC "-//W3C//DTD SVG 1.1//EN" "http://www.w3.org/Graphics/SVG/1.1/DTD/svg11.dtd">
<svg version="1.1" xmlns="http://www.w3.org/2000/svg" xmlns:xlink="http://www.w3.org/1999/xlink" x="0px" y="0px"
	 viewBox="0 0 2272 1872" enable-background="new 0 0 2272 1872" xml:space="preserve">
<g id="Background">
	<rect x="-37.5" y="-20" fill="#B9E5FB" width="2367" height="1922.7"/>
</g>
<g id="Object">
	<path fill="#6DCFF6" d="M261.2,755.3c34.6,27.5,105.2,81.1,119.8,86.6c2.6,1,5.3,1.4,8.1,1.4c7.7,0,23.6,0,126.7-93.7
		c30.2-27.4,101.6-93.9,112.3-118.4c2.8-6.4,10.2-23.3,7-137.9c-1.6-56.2-4.9-108.6-5.3-114.4c-0.7-10.7-9.6-19.1-20.4-19.1
		c-0.3,0-0.6,0-0.9,0c0,0-1,0-2.9,0c-18.6,0-116.1-4.2-203.4-86.6c-3.8-3.6-8.8-5.6-14-5.6c-5.1,0-10.1,1.9-13.8,5.4
		c-0.2,0.2-19.8,17.9-55.7,36.7c-32.5,17-85.5,38.5-153.6,44.2c-10.4,0.9-18.4,9.4-18.7,19.8c-0.6,23.9-5.8,234.2,0.3,266.7
		C149.5,654.4,165.1,678.8,261.2,755.3z"/>
	<path fill="#6DCFF6" d="M636.8,1203.8H305.2c-10.2-35.8-38.7-67.6-86.6-96.9c-3.2-2-6.9-3-10.6-3c-5.4,0-10.7,2.2-14.5,6.1
		c-6.6,6.7-7.8,17-2.8,25.1c1.7,2.9,36.9,63.1-21.1,125.1c-56.3,60.2-82.7,115.4-80.8,168.8c1.7,46.8,25.2,91.6,70.1,133.2
		c17.4,16.1,44.8,25,77.3,25h0c35.7,0,75.1-10.9,106.3-29.4h294.3c11.2,0,20.4-9.1,20.4-20.4v-313.3
		C657.2,1213,648.1,1203.8,636.8,1203.8z"/>
	<path fill="#6DCFF6" d="M1092.9,706.2c6.5,0,12.9-0.1,19.3-0.3l-16.1,15c-5.1,4.8-7.4,11.7-6.1,18.6l10.8,58.7
		c0.6,3.1,1.8,6,3.7,8.5L1127,837c3.8,5.1,9.8,8.2,16.2,8.2c0,0,0.2,0,0.2,0c6.3,0,12.3-3,16.1-7.9l13.5-17.4l19.7-8.7
		c6.4-2.8,10.9-8.7,11.9-15.6l4-26.8l26.3-8.8c7.3-2.4,12.7-9,13.8-16.7l2.9-21.7l13.9-1.9c5.1-0.7,9.7-3.2,13-7.1l35.6-42.7
		c10.2,4,21.1,6,32.1,6c24.4,0,49-9.4,73-27.9c23.2-17.9,37.6-46.4,39.7-78.2c2.1-33.1-9.8-65.3-32.8-88.3
		c-20.7-20.7-47.8-31.6-78.5-31.6c-24.6,0-49.8,7.5-71.2,20.6V336.2c0-55.5-115.3-70.3-183.4-70.3s-183.4,14.8-183.4,70.3v299.6
		C909.5,691.4,1024.8,706.2,1092.9,706.2z"/>
	<path fill="#6DCFF6" d="M1458.1,1194.3c-1.7-65.8-4.9-82.7-7.5-90.1c-3.3-9.2-9.3-13.1-13.7-14.7c-3.7-1.4-8.8-3.3-87.1-4.3
		c-40.3-0.5-83.5-0.6-95.8-0.6c-90.7,0-180.6,1.3-246.7,3.5c-39.2,1.3-70,2.9-91.6,4.8c-19.4,1.7-30.2,3.4-37.4,5.8
		c-10.7,3.6-16.5,10.3-17.2,20.1c-0.3,3.9-0.2,31.5,0.2,81.8c0,0,0,0.4,0,0.5c0.4,45.2,1.1,100.4,1.8,151.4
		c1.4,99.1,2.7,163.9,4,198.3c1.2,32,2.1,34.5,5.2,39.2c6.6,9.9,13.8,10.2,48.7,11.7c19.8,0.9,47.9,1.7,81.5,2.5
		c70.3,1.6,155.2,2.5,227.2,2.5h0c57.2,0,105.4-0.6,139.3-1.7c29.1-1,47.4-2.2,57.6-4c9.5-1.7,16.3-4.3,20.8-12.1
		c2.8-4.9,6.3-11,9.3-124.6c1.5-55.6,2.1-109.6,2.1-110.1c0.3-25.8,0.8-91.2-0.4-147.9c0.5-1.8,0.8-3.6,0.8-5.5
		C1459.1,1198.5,1458.8,1196.3,1458.1,1194.3z"/>
	<path fill="#6DCFF6" d="M1610.7,788.2c6.8,0.4,16.7,0.8,29.5,1c15.4,0.3,35.7,0.5,60.2,0.6c3.4,2.6,7.7,4.2,12.3,4.2
		c0.5,0,0.9,0,1.4,0c4-0.3,7.8-1.7,10.8-4c2.9,0,5.9,0,8.9,0c0.9,16.6,2,31.4,2.6,39.7c0.8,10.5,9.8,18.8,20.3,18.8
		c0.6,0,1.1,0,1.7-0.1c5.4-0.4,10.3-3,13.8-7.1c3.5-4.1,5.2-9.4,4.8-14.8c-1-12.1-1.8-24.5-2.4-36.5c52.6-0.1,116.9-0.6,191.6-1.3
		c-0.6,12.7-1.3,26-2.2,38c-0.4,5.4,1.4,10.7,4.9,14.8c3.6,4.1,8.5,6.6,14,7c0.5,0,1,0.1,1.4,0.1c10.6,0,19.6-8.3,20.3-18.9
		c0.3-3.8,1.5-20.9,2.3-41.3c4.4,0,8.6-0.1,12.8-0.1c3.5,3.5,8.3,5.8,13.7,6c0.2,0,0.5,0,0.7,0c5.8,0,11.1-2.4,14.8-6.4
		c22.6-0.3,41.8-0.5,56-0.7l0.5,0c14.8-0.2,25.5-0.3,27.1-0.3c3.9,0,17.1-1.4,21.7-18.9c7.3-28.1,8.8-173.5,8.6-255
		c-0.2-58.6-1.1-112.8-2.7-152.6c-1.3-33-2.9-53.8-4.9-65.5c-1.8-10.3-4.6-17.6-12.7-22.1c-5.4-3-9.7-5.4-114-7.7
		c-60.4-1.3-135.7-2.1-206.6-2.1c-61.5,0-114.2,0.6-152.5,1.7c-31.9,0.9-52,2.1-63.4,3.7c-10.1,1.4-16.5,3.5-21.5,10
		c-4.2,5.6-7.5,10-8.8,89.8c-0.4,1.5-0.5,3-0.5,4.5c0,1.4,0.1,2.8,0.4,4.2c-0.5,38.9-0.6,90.8-0.1,154.2c0.3,34.1,0.9,92.7,2,145.6
		c1.8,90.7,3,93.8,4.4,97.4C1587.4,786.7,1599.8,787.5,1610.7,788.2z"/>
	<path fill="#6DCFF6" d="M2144.9,1082.8c-6.2-6.2-11.4-9-70-12.4c-32.5-1.9-77.4-3.5-126.4-4.5c-28.4-0.6-72.9-1.3-123.4-1.3
		c-63.3,0-116.4,1.2-153.4,3.4c-53.9,3.2-65.6,7.6-72.8,16.7c-5.3,6.8-11.1,21-13.6,75.2c-1.4,29.6-1.2,59-1.1,64.5
		c0.3,35.7,2.7,122,17.3,152c7.7,15.8,19.1,18.1,25.2,18.1h101.9c-9.9,23.9-15.3,50.4-15.3,76.5c0,41.3,13.1,79.3,36.8,106.9
		c27.5,31.9,67.6,48.8,116.1,48.8c48.5,0,88.6-16.9,116.1-48.8c23.7-27.6,36.8-65.5,36.8-106.9c0-26.2-5.3-52.7-15.3-76.6
		c13-0.1,28.6-0.2,44.2-0.5c36.1-0.7,60.4-1.9,74.3-3.6c12.3-1.5,18-3.7,22.8-8.4c6.1-6.1,8.4-12.2,10.7-57
		c1.3-24.9,2.2-58,2.4-90.7c0.3-35.2-0.1-67.7-1.2-91.7C2154.7,1095.9,2150.9,1088.8,2144.9,1082.8z"/>
	<path fill="#FFFFFF" d="M273.2,740.8c34.6,27.5,105.2,81.1,119.8,86.6c2.6,1,5.3,1.4,8.1,1.4c7.7,0,23.6,0,126.7-93.7
		c30.2-27.4,101.6-93.9,112.3-118.4c2.8-6.4,10.2-23.3,7-137.9c-1.6-56.2-4.9-108.6-5.3-114.4c-0.7-10.7-9.6-19.1-20.4-19.1
		c-0.3,0-0.6,0-0.9,0c0,0-1,0-2.9,0c-18.6,0-116.1-4.2-203.4-86.6c-3.8-3.6-8.8-5.6-14-5.6c-5.1,0-10.1,1.9-13.8,5.4
		c-0.2,0.2-19.8,17.9-55.7,36.7c-32.5,17-85.5,38.5-153.6,44.2c-10.4,0.9-18.4,9.4-18.7,19.8c-0.6,23.9-5.8,234.2,0.3,266.7
		C161.5,639.9,177.1,664.3,273.2,740.8z"/>
	<path fill="#FFFFFF" d="M648.8,1189.3H317.2c-10.2-35.8-38.7-67.6-86.6-96.9c-3.2-2-6.9-3-10.6-3c-5.4,0-10.7,2.2-14.5,6.1
		c-6.6,6.7-7.8,17-2.8,25.1c1.7,2.9,36.9,63.1-21.1,125.1c-56.3,60.2-82.7,115.4-80.8,168.8c1.7,46.8,25.2,91.6,70.1,133.2
		c17.4,16.1,44.8,25,77.3,25h0c35.7,0,75.1-10.9,106.3-29.4h294.3c11.2,0,20.4-9.1,20.4-20.4v-313.3
		C669.2,1198.5,660.1,1189.3,648.8,1189.3z"/>
	<path fill="#FFFFFF" d="M1104.9,691.7c6.5,0,12.9-0.1,19.3-0.3l-16.1,15c-5.1,4.8-7.4,11.7-6.1,18.6l10.8,58.7
		c0.6,3.1,1.8,6,3.7,8.5l22.5,30.4c3.8,5.1,9.8,8.2,16.2,8.2c0,0,0.2,0,0.2,0c6.3,0,12.3-3,16.1-7.9l13.5-17.4l19.7-8.7
		c6.4-2.8,10.9-8.7,11.9-15.6l4-26.8l26.3-8.8c7.3-2.4,12.7-9,13.8-16.7l2.9-21.7l13.9-1.9c5.1-0.7,9.7-3.2,13-7.1l35.6-42.7
		c10.2,4,21.1,6,32.1,6c24.4,0,49-9.4,73-27.9c23.2-17.9,37.6-46.4,39.7-78.2c2.1-33.1-9.8-65.3-32.8-88.3
		c-20.7-20.7-47.8-31.6-78.5-31.6c-24.6,0-49.8,7.5-71.2,20.6V321.7c0-55.5-115.3-70.3-183.4-70.3s-183.4,14.8-183.4,70.3v299.6
		C921.5,676.9,1036.8,691.7,1104.9,691.7z"/>
	<path fill="#FFFFFF" d="M1470.1,1179.8c-1.7-65.8-4.9-82.7-7.5-90.1c-3.3-9.2-9.3-13.1-13.7-14.7c-3.7-1.4-8.8-3.3-87.1-4.3
		c-40.3-0.5-83.5-0.6-95.8-0.6c-90.7,0-180.6,1.3-246.7,3.5c-39.2,1.3-70,2.9-91.6,4.8c-19.4,1.7-30.2,3.4-37.4,5.8
		c-10.7,3.6-16.5,10.3-17.2,20.1c-0.3,3.9-0.2,31.5,0.2,81.8c0,0,0,0.4,0,0.5c0.4,45.2,1.1,100.4,1.8,151.4
		c1.4,99.1,2.7,163.9,4,198.3c1.2,32,2.1,34.5,5.2,39.2c6.6,9.9,13.8,10.2,48.7,11.7c19.8,0.9,47.9,1.7,81.5,2.5
		c70.3,1.6,155.2,2.5,227.2,2.5h0c57.2,0,105.4-0.6,139.3-1.7c29.1-1,47.4-2.2,57.6-4c9.5-1.7,16.3-4.3,20.8-12.1
		c2.8-4.9,6.3-11,9.3-124.6c1.5-55.6,2.1-109.6,2.1-110.1c0.3-25.8,0.8-91.2-0.4-147.9c0.5-1.8,0.8-3.6,0.8-5.5
		C1471.1,1184,1470.8,1181.8,1470.1,1179.8z"/>
	<path fill="#FFFFFF" d="M1622.7,773.7c6.8,0.4,16.7,0.8,29.5,1c15.4,0.3,35.7,0.5,60.2,0.6c3.4,2.6,7.7,4.2,12.3,4.2
		c0.5,0,0.9,0,1.4,0c4-0.3,7.8-1.7,10.8-4c2.9,0,5.9,0,8.9,0c0.9,16.6,2,31.4,2.6,39.7c0.8,10.5,9.8,18.8,20.3,18.8
		c0.6,0,1.1,0,1.7-0.1c5.4-0.4,10.3-3,13.8-7.1c3.5-4.1,5.2-9.4,4.8-14.8c-1-12.1-1.8-24.5-2.4-36.5c52.6-0.1,116.9-0.6,191.6-1.3
		c-0.6,12.7-1.3,26-2.2,38c-0.4,5.4,1.4,10.7,4.9,14.8c3.6,4.1,8.5,6.6,14,7c0.5,0,1,0.1,1.4,0.1c10.6,0,19.6-8.3,20.3-18.9
		c0.3-3.8,1.5-20.9,2.3-41.3c4.4,0,8.6-0.1,12.8-0.1c3.5,3.5,8.3,5.8,13.7,6c0.2,0,0.5,0,0.7,0c5.8,0,11.1-2.4,14.8-6.4
		c22.6-0.3,41.8-0.5,56-0.7l0.5,0c14.8-0.2,25.5-0.3,27.1-0.3c3.9,0,17.1-1.4,21.7-18.9c7.3-28.1,8.8-173.5,8.6-255
		c-0.2-58.6-1.1-112.8-2.7-152.6c-1.3-33-2.9-53.8-4.9-65.5c-1.8-10.3-4.6-17.6-12.7-22.1c-5.4-3-9.7-5.4-114-7.7
		c-60.4-1.3-135.7-2.1-206.6-2.1c-61.5,0-114.2,0.6-152.5,1.7c-31.9,0.9-52,2.1-63.4,3.7c-10.1,1.4-16.5,3.5-21.5,10
		c-4.2,5.6-7.5,10-8.8,89.8c-0.4,1.5-0.5,3-0.5,4.5c0,1.4,0.1,2.8,0.4,4.2c-0.5,38.9-0.6,90.8-0.1,154.2c0.3,34.1,0.9,92.7,2,145.6
		c1.8,90.7,3,93.8,4.4,97.4C1599.4,772.2,1611.8,773,1622.7,773.7z"/>
	<path fill="#FFFFFF" d="M2156.9,1068.3c-6.2-6.2-11.4-9-70-12.4c-32.5-1.9-77.4-3.5-126.4-4.5c-28.4-0.6-72.9-1.3-123.4-1.3
		c-63.3,0-116.4,1.2-153.4,3.4c-53.9,3.2-65.6,7.6-72.8,16.7c-5.3,6.8-11.1,21-13.6,75.2c-1.4,29.6-1.2,59-1.1,64.5
		c0.3,35.7,2.7,122,17.3,152c7.7,15.8,19.1,18.1,25.2,18.1h101.9c-9.9,23.9-15.3,50.4-15.3,76.5c0,41.3,13.1,79.3,36.8,106.9
		c27.5,31.9,67.6,48.8,116.1,48.8c48.5,0,88.6-16.9,116.1-48.8c23.7-27.6,36.8-65.5,36.8-106.9c0-26.2-5.3-52.7-15.3-76.6
		c13-0.1,28.6-0.2,44.2-0.5c36.1-0.7,60.4-1.9,74.3-3.6c12.3-1.5,18-3.7,22.8-8.4c6.1-6.1,8.4-12.2,10.7-57
		c1.3-24.9,2.2-58,2.4-90.7c0.3-35.2-0.1-67.7-1.2-91.7C2166.7,1081.4,2162.9,1074.3,2156.9,1068.3z"/>
	<g>
		<path fill="#EE626A" d="M362.3,659.8c8-4.7,46.7-38.6,98.6-88.3c57.5-55.1,87.4-87.3,92.1-95.5c-4.3-6.7-23-25.4-41.1-42.1
			L370.7,573.2c-2,2-5.3,2.1-7.4,0.2l-59.5-53.9c-16.9,12.1-34.4,30.6-41.3,38.2C304.5,605.5,351.8,655.1,362.3,659.8z"/>
		<path fill="#5EC2BA" d="M289.2,720.6c51.6,41,103.5,78.2,112.3,82.4c8.5-1.8,49.4-32.7,110-87.8c56.2-51.1,99.4-95.8,105.1-108.8
			c10.5-24,3.8-173.3-0.1-235.3c-22.6-0.2-124.5-5.9-216.4-90.2c-17.4,14.7-92.9,72.3-215.9,83.9c-0.8,33.2-5.2,228.6,0,256.5
			C185.8,630.3,214.3,661.1,289.2,720.6z M251.2,554.1c1.1-1.2,26.2-30.1,50-46c2-1.4,4.8-1.2,6.6,0.5l58.9,53.4L508,422.6
			c2-2,5.3-2.1,7.4-0.2c7.3,6.7,44.2,40.5,48.4,50.9c1.1,2.8,0,5.4-1.1,7.4c-7.7,13.6-56.4,62.4-99.5,103.4
			c-23.3,22.2-45.8,43-63.4,58.6c-30.4,26.9-33.7,27.5-35.9,27.8c-0.4,0.1-0.8,0.1-1.3,0.1c-3.7,0-10.9-0.4-62.4-55.6
			c-25-26.7-48.7-53.7-48.9-54C249.4,559.2,249.4,556.2,251.2,554.1z"/>
		<path fill="#541900" d="M282.5,729c49.1,39,106.4,80.8,115.8,84.3c0.9,0.3,1.8,0.5,2.8,0.5c16.1,0,86.9-62.8,116.6-89.8
			C563,683,618.6,628.6,626.4,610.7c14.1-32.2,1-236.7,0.4-245.3c-0.2-2.9-2.7-5.1-5.6-5c-0.1,0-1.3,0.1-3.6,0.1
			c-19.6,0-122.3-4.4-213.7-90.6c-2.1-1.9-5.3-2-7.3,0c-0.8,0.7-80.8,73.3-218.1,84.8c-2.7,0.2-4.9,2.5-4.9,5.2
			c-0.2,9.5-5.8,232,0.1,263.6C176.4,638.2,213,673.8,282.5,729z M184.1,364.8c123.1-11.6,198.5-69.2,215.9-83.9
			c91.8,84.3,193.7,90.1,216.4,90.2c3.9,62,10.6,211.2,0.1,235.3c-5.7,12.9-48.9,57.7-105.1,108.8c-60.6,55.1-101.5,86.1-110,87.8
			c-8.8-4.2-60.7-41.3-112.3-82.4c-74.9-59.6-103.4-90.4-105-99.4C178.9,593.3,183.3,398,184.1,364.8z"/>
		<path fill="#541900" d="M300.1,615.2c51.6,55.1,58.7,55.6,62.4,55.6c0.5,0,0.9,0,1.3-0.1c2.2-0.4,5.5-0.9,35.9-27.8
			c17.6-15.6,40.1-36.4,63.4-58.6c43.1-41.1,91.8-89.8,99.5-103.4c1.1-2,2.3-4.6,1.1-7.4c-4.2-10.4-41-44.3-48.4-50.9
			c-2.1-1.9-5.4-1.9-7.4,0.2L366.7,562l-58.9-53.4c-1.8-1.6-4.5-1.9-6.6-0.5c-23.8,15.9-49,44.8-50,46c-1.8,2-1.7,5,0,7.1
			C251.5,561.4,275.1,588.5,300.1,615.2z M303.8,519.4l59.5,53.9c2.1,1.9,5.3,1.8,7.4-0.2l141.3-139.4
			c18.2,16.7,36.8,35.4,41.1,42.1c-4.7,8.1-34.6,40.4-92.1,95.5c-52,49.8-90.6,83.7-98.6,88.3c-10.6-4.7-57.8-54.2-99.9-102.1
			C269.4,550,286.8,531.6,303.8,519.4z"/>
	</g>
	<g>
		<path fill="#EE626A" d="M400.6,1434.6c0.3-4.7,0.4-9.3,0.4-13.7c0,0,0-0.1,0-0.1c0,0,0-0.1,0-0.1c0-44.4-14.3-76.5-42.7-96l0,0
			c-2.9-2-5.9-3.8-9-5.5c0.3,0.5,0.6,1.1,0.9,1.6c5.5,10.6,10.9,25.1,11,41.2c0.1,10.2-2,21-7.5,31.9c-3.4,6.6-8.2,12.2-14.1,16.6
			c-8.8,6.5-19.8,10.2-31.6,10.2c-11.8,0-23.3-3.7-32.5-10.4c-10-7.3-25.9-24.5-20.8-58.6c2.6-17.2,10.4-34.8,18.6-53.6l0.4-0.8
			c11.7-26.5,24.9-56.5,21.4-86.9c-3.5-30.9-24-59.1-62.5-85.8c3,8.2,6,18.9,7.3,31.4c2.8,26.7-1.8,67-39.6,107.4
			c-51.3,54.9-75.5,104.1-73.9,150.3c1.4,39.7,22.2,78.5,61.9,115.3c12.6,11.7,33.8,18.1,59.8,18.1c0,0,0,0,0,0
			c33.2,0,69.7-10.7,97.8-28.5C369.4,1503.6,398,1476.9,400.6,1434.6z"/>
		<rect x="569.5" y="1325.5" fill="#5EC2BA" width="74" height="89.8"/>
		<path fill="#5EC2BA" d="M411.3,1435.3c-0.1,1.8-0.3,3.6-0.5,5.4c0,0.3-0.1,0.6-0.1,0.8c-0.2,1.7-0.5,3.4-0.7,5.1
			c-0.1,0.3-0.1,0.6-0.2,1c-0.3,1.7-0.6,3.4-1,5c-0.1,0.2-0.1,0.4-0.2,0.6c-0.4,1.7-0.8,3.3-1.3,5c0,0.1-0.1,0.2-0.1,0.4
			c-0.5,1.7-1,3.3-1.6,5c-0.1,0.3-0.2,0.6-0.3,0.8c-0.6,1.6-1.2,3.2-1.9,4.8c-0.1,0.3-0.2,0.6-0.4,0.8c-0.7,1.6-1.4,3.2-2.2,4.8
			c-0.1,0.1-0.1,0.2-0.2,0.4c-0.8,1.6-1.6,3.1-2.4,4.6c-0.1,0.2-0.2,0.3-0.3,0.5c-0.9,1.5-1.8,3.1-2.7,4.6c-0.2,0.3-0.3,0.5-0.5,0.8
			c-0.9,1.5-1.9,3-2.9,4.4c-0.2,0.2-0.3,0.4-0.5,0.7c-1.1,1.5-2.2,3-3.3,4.5c0,0,0,0,0,0c-1.2,1.5-2.4,2.9-3.6,4.4
			c-0.2,0.2-0.3,0.4-0.5,0.6c-1.2,1.4-2.4,2.7-3.7,4.1c-0.2,0.2-0.5,0.5-0.7,0.7c-1.3,1.3-2.6,2.7-4,4c-0.2,0.2-0.4,0.3-0.5,0.5
			c-1.4,1.3-2.8,2.6-4.2,3.9c-0.1,0.1-0.2,0.2-0.3,0.2c-1.5,1.3-3,2.5-4.5,3.8c-0.2,0.1-0.3,0.3-0.5,0.4h122.7v-91.6h-76.5
			C411.6,1429.1,411.5,1432.2,411.3,1435.3z"/>
		<rect x="499" y="1426.1" fill="#5EC2BA" width="144.5" height="91.6"/>
		<rect x="499" y="1215.1" fill="#5EC2BA" width="144.5" height="99.7"/>
		<path fill="#5EC2BA" d="M284.1,1403c0.1,0.1,0.2,0.2,0.3,0.2c0.4,0.2,0.8,0.4,1.2,0.7c0.6,0.3,1.1,0.6,1.7,0.9
			c0.4,0.2,0.8,0.4,1.3,0.6c0.6,0.3,1.1,0.5,1.7,0.8c0.4,0.2,0.9,0.4,1.3,0.5c0.6,0.2,1.2,0.4,1.8,0.6c0.5,0.2,0.9,0.3,1.4,0.4
			c0.6,0.2,1.2,0.4,1.9,0.5c0.5,0.1,0.9,0.2,1.4,0.3c0.7,0.1,1.3,0.3,2,0.4c0.4,0.1,0.9,0.2,1.3,0.2c0.7,0.1,1.5,0.2,2.2,0.3
			c0.4,0,0.7,0.1,1.1,0.1c1.1,0.1,2.3,0.1,3.4,0.1c0,0,0,0,0,0c15.9,0,29.4-7.8,36.1-20.9c13.2-25.9,2.6-52.4-5.7-67.1h-54.4V1403z"
			/>
		<path fill="#5EC2BA" d="M411.7,1415.4h147v-89.8H376.5C398.7,1346.4,410.7,1376.7,411.7,1415.4z"/>
		<path fill="#5EC2BA" d="M294.4,1275.9c-0.6,1.5-1.2,3-1.8,4.5c-0.1,0.2-0.2,0.4-0.2,0.6c-0.6,1.6-1.3,3.1-1.9,4.6
			c0,0.1-0.1,0.1-0.1,0.2c-0.6,1.6-1.3,3.1-2,4.6c0,0.1-0.1,0.2-0.1,0.3c-0.7,1.5-1.3,3-2,4.6c-0.1,0.2-0.2,0.4-0.2,0.5
			c-0.7,1.5-1.3,3.1-2,4.6c0,0,0,0,0,0v10.5h47.4c-0.3-0.5-0.6-0.7-0.6-0.8c-1.5-1.9-1.6-4.5-0.3-6.5c1.4-2,3.9-2.8,6.2-2
			c9.6,3.4,18.3,7.8,26.1,13h125.3v-99.7H306.4c0,0,0,0.1,0,0.1c0.1,1.7,0.1,3.5,0.1,5.2c0,0.2,0,0.4,0,0.7c0,1.7-0.1,3.3-0.1,5
			c0,0.3,0,0.5,0,0.8c-0.1,1.6-0.2,3.3-0.4,4.9c0,0.3-0.1,0.6-0.1,0.8c-0.2,1.6-0.4,3.2-0.6,4.8c0,0.3-0.1,0.5-0.1,0.8
			c-0.3,1.6-0.5,3.3-0.8,4.9c0,0.2-0.1,0.4-0.1,0.6c-0.3,1.7-0.7,3.4-1.1,5c0,0.1,0,0.2-0.1,0.3c-0.4,1.7-0.8,3.3-1.3,5
			c0,0.1-0.1,0.2-0.1,0.4c-0.4,1.6-0.9,3.3-1.4,4.9c-0.1,0.2-0.1,0.4-0.2,0.7c-0.5,1.6-1,3.1-1.5,4.7c-0.1,0.3-0.2,0.5-0.3,0.8
			c-0.5,1.5-1,3-1.6,4.5c-0.1,0.3-0.2,0.5-0.3,0.8c-0.5,1.5-1.1,3-1.7,4.5C294.6,1275.4,294.5,1275.7,294.4,1275.9z"/>
		<path fill="#541900" d="M648.8,1204.3H305.2c-6-36.4-33-68.8-82.4-99.1c-2.1-1.3-4.9-1-6.6,0.8c-1.8,1.8-2,4.5-0.7,6.6
			c0.4,0.7,44,71.7-22.9,143.3c-53.4,57.1-78.5,108.8-76.8,158c1.5,42.6,23.5,83.9,65.3,122.8c14.6,13.5,38.4,21,67.1,21
			c0,0,0,0,0,0c34.6,0,72.7-11,102.2-29.4h298.5c3,0,5.4-2.4,5.4-5.4v-313.3C654.2,1206.8,651.8,1204.3,648.8,1204.3z M296.7,1269.9
			c0.5-1.5,1.1-3,1.6-4.5c0.1-0.3,0.2-0.5,0.3-0.8c0.5-1.5,1-3.1,1.5-4.7c0.1-0.2,0.1-0.4,0.2-0.7c0.5-1.6,1-3.2,1.4-4.9
			c0-0.1,0.1-0.2,0.1-0.4c0.4-1.7,0.9-3.3,1.3-5c0-0.1,0-0.2,0.1-0.3c0.4-1.7,0.7-3.3,1.1-5c0-0.2,0.1-0.4,0.1-0.6
			c0.3-1.6,0.6-3.3,0.8-4.9c0-0.3,0.1-0.5,0.1-0.8c0.2-1.6,0.4-3.2,0.6-4.8c0-0.3,0.1-0.6,0.1-0.8c0.2-1.6,0.3-3.3,0.4-4.9
			c0-0.3,0-0.5,0-0.8c0.1-1.7,0.1-3.3,0.1-5c0-0.2,0-0.4,0-0.7c0-1.7,0-3.5-0.1-5.2c0,0,0-0.1,0-0.1h181.9v99.7H362.9
			c-7.8-5.2-16.5-9.5-26.1-13c-2.3-0.8-4.8,0-6.2,2c-1.4,2-1.3,4.6,0.3,6.5c0,0,0.2,0.3,0.6,0.8h-47.4v-10.5c0,0,0,0,0,0
			c0.7-1.5,1.3-3,2-4.6c0.1-0.2,0.2-0.4,0.2-0.5c0.7-1.5,1.3-3,2-4.6c0-0.1,0.1-0.2,0.1-0.3c0.7-1.5,1.3-3.1,2-4.6
			c0-0.1,0.1-0.1,0.1-0.2c0.6-1.5,1.3-3.1,1.9-4.6c0.1-0.2,0.2-0.4,0.2-0.6c0.6-1.5,1.2-3,1.8-4.5c0.1-0.3,0.2-0.5,0.3-0.8
			c0.6-1.5,1.1-3,1.7-4.5C296.5,1270.4,296.6,1270.2,296.7,1269.9z M558.8,1325.5v89.8h-147c-1.1-38.6-13-68.9-35.2-89.8H558.8z
			 M338.5,1321.8c8.3,14.7,18.9,41.3,5.7,67.1c-6.7,13.1-20.2,20.9-36.1,20.9c0,0,0,0,0,0c-1.1,0-2.3,0-3.4-0.1
			c-0.4,0-0.7-0.1-1.1-0.1c-0.7-0.1-1.5-0.1-2.2-0.3c-0.4-0.1-0.9-0.2-1.3-0.2c-0.7-0.1-1.3-0.2-2-0.4c-0.5-0.1-0.9-0.2-1.4-0.3
			c-0.6-0.2-1.3-0.3-1.9-0.5c-0.5-0.1-0.9-0.3-1.4-0.4c-0.6-0.2-1.2-0.4-1.8-0.6c-0.4-0.2-0.9-0.4-1.3-0.5c-0.6-0.2-1.2-0.5-1.7-0.8
			c-0.4-0.2-0.8-0.4-1.3-0.6c-0.6-0.3-1.1-0.6-1.7-0.9c-0.4-0.2-0.8-0.4-1.2-0.7c-0.1-0.1-0.2-0.2-0.3-0.2v-81.2H338.5z
			 M345.9,1518.5c-28,17.9-64.6,28.5-97.8,28.5c0,0,0,0,0,0c-26,0-47.2-6.4-59.8-18.1c-39.6-36.8-60.5-75.6-61.9-115.3
			c-1.6-46.2,22.5-95.4,73.9-150.3c37.8-40.4,42.4-80.7,39.6-107.4c-1.3-12.5-4.3-23.2-7.3-31.4c38.5,26.7,59,54.9,62.5,85.8
			c3.4,30.5-9.8,60.5-21.4,86.9l-0.4,0.8c-8.2,18.7-16,36.4-18.6,53.6c-5.2,34.1,10.8,51.3,20.8,58.6c9.2,6.7,20.7,10.4,32.5,10.4
			c11.8,0,22.9-3.7,31.6-10.2c5.8-4.4,10.7-9.9,14.1-16.6c5.5-10.8,7.6-21.7,7.5-31.9c-0.1-16.1-5.6-30.7-11-41.2
			c-0.3-0.6-0.6-1.1-0.9-1.6c3.2,1.7,6.2,3.6,9,5.5l0,0c28.4,19.4,42.7,51.6,42.7,96c0,0,0,0.1,0,0.1c0,0,0,0.1,0,0.1
			c0,4.5-0.1,9-0.4,13.7C398,1476.9,369.4,1503.6,345.9,1518.5z M488.3,1517.7H365.6c0.2-0.1,0.3-0.3,0.5-0.4
			c1.5-1.2,3.1-2.5,4.5-3.8c0.1-0.1,0.2-0.2,0.3-0.2c1.4-1.3,2.8-2.6,4.2-3.9c0.2-0.2,0.4-0.3,0.5-0.5c1.4-1.3,2.7-2.6,4-4
			c0.2-0.2,0.5-0.5,0.7-0.7c1.3-1.3,2.5-2.7,3.7-4.1c0.2-0.2,0.3-0.4,0.5-0.6c1.2-1.4,2.4-2.9,3.6-4.4c0,0,0,0,0,0
			c1.2-1.5,2.3-3,3.3-4.5c0.2-0.2,0.3-0.4,0.5-0.7c1-1.5,2-2.9,2.9-4.4c0.2-0.3,0.3-0.5,0.5-0.8c0.9-1.5,1.8-3,2.7-4.6
			c0.1-0.2,0.2-0.3,0.3-0.5c0.8-1.5,1.7-3.1,2.4-4.6c0.1-0.1,0.1-0.2,0.2-0.4c0.8-1.6,1.5-3.2,2.2-4.8c0.1-0.3,0.2-0.6,0.4-0.8
			c0.7-1.6,1.3-3.2,1.9-4.8c0.1-0.3,0.2-0.6,0.3-0.8c0.6-1.7,1.1-3.3,1.6-5c0-0.1,0.1-0.2,0.1-0.4c0.5-1.6,0.9-3.3,1.3-5
			c0.1-0.2,0.1-0.4,0.2-0.6c0.4-1.7,0.7-3.3,1-5c0.1-0.3,0.1-0.6,0.2-1c0.3-1.7,0.5-3.4,0.7-5.1c0-0.3,0.1-0.6,0.1-0.8
			c0.2-1.8,0.4-3.6,0.5-5.4c0.2-3.1,0.3-6.2,0.4-9.2h76.5V1517.7z M643.5,1517.7H499v-91.6h144.5V1517.7z M643.5,1415.4h-74v-89.8
			h74V1415.4z M643.5,1314.8H499v-99.7h144.5V1314.8z"/>
	</g>
	<g>
		<path fill="#EE626A" d="M984.5,520.6c5.8,0,9-4,9-7.8c0-1.2-0.3-2.9-1.8-4.2c-1.5-1.4-4-2.2-7.2-2.2c-3.2,0-5.7,0.8-7.2,2.2
			c-1.5,1.4-1.8,3-1.8,4.2C975.5,516.6,978.7,520.6,984.5,520.6z"/>
		<path fill="#5EC2BA" d="M1104.9,566.1c2.1,0,4.3,0,6.4,0c0.7,0,1.4,0,2,0c1.4,0,2.8,0,4.3-0.1c0.9,0,1.7-0.1,2.6-0.1
			c1.2,0,2.5-0.1,3.7-0.1c0.9,0,1.8-0.1,2.7-0.1c1.2,0,2.3-0.1,3.5-0.2c0.9,0,1.9-0.1,2.8-0.2c1.1-0.1,2.2-0.1,3.3-0.2
			c0.9-0.1,1.9-0.1,2.8-0.2c1.1-0.1,2.2-0.1,3.3-0.2c0.9-0.1,1.9-0.1,2.8-0.2c1.1-0.1,2.1-0.2,3.2-0.3c1-0.1,1.9-0.2,2.9-0.3
			c1-0.1,2.1-0.2,3.1-0.3c0.9-0.1,1.9-0.2,2.8-0.3c1-0.1,2-0.2,3-0.3c0.9-0.1,1.9-0.2,2.8-0.3c1-0.1,2-0.2,2.9-0.4
			c0.9-0.1,1.8-0.2,2.8-0.4c1-0.1,1.9-0.3,2.9-0.4c0.9-0.1,1.8-0.3,2.7-0.4c0.9-0.1,1.9-0.3,2.8-0.4c0.9-0.1,1.8-0.3,2.7-0.4
			c0.9-0.1,1.8-0.3,2.7-0.4c0.9-0.1,1.7-0.3,2.6-0.5c0.9-0.2,1.8-0.3,2.7-0.5c0.9-0.2,1.7-0.3,2.6-0.5c0.9-0.2,1.8-0.3,2.6-0.5
			c0.8-0.2,1.7-0.3,2.5-0.5c0.9-0.2,1.7-0.4,2.6-0.5c0.8-0.2,1.6-0.4,2.4-0.5c0.8-0.2,1.7-0.4,2.5-0.6c0.8-0.2,1.6-0.4,2.4-0.6
			c0.8-0.2,1.6-0.4,2.4-0.6c0.8-0.2,1.5-0.4,2.3-0.6c0.8-0.2,1.6-0.4,2.3-0.6c0.7-0.2,1.5-0.4,2.2-0.6c0.8-0.2,1.5-0.4,2.3-0.7
			c0.7-0.2,1.4-0.4,2.1-0.6c0.7-0.2,1.5-0.5,2.2-0.7c0.7-0.2,1.4-0.4,2-0.7c0.7-0.2,1.4-0.5,2.1-0.7c0.7-0.2,1.3-0.4,1.9-0.7
			c0.7-0.2,1.4-0.5,2-0.7c0.6-0.2,1.2-0.5,1.8-0.7c0.7-0.3,1.3-0.5,1.9-0.8c0.6-0.2,1.2-0.5,1.7-0.7c0.6-0.3,1.2-0.5,1.9-0.8
			c0.6-0.2,1.1-0.5,1.6-0.7c0.6-0.3,1.2-0.5,1.8-0.8c0.5-0.2,1-0.5,1.5-0.7c0.6-0.3,1.1-0.6,1.7-0.8c0.5-0.3,1-0.5,1.4-0.8
			c0.5-0.3,1-0.6,1.5-0.9c0.4-0.3,0.9-0.5,1.3-0.8c0.5-0.3,1-0.6,1.4-0.9c0.4-0.3,0.8-0.5,1.2-0.8c0.5-0.3,0.9-0.6,1.3-0.9
			c0.4-0.3,0.8-0.5,1.1-0.8c0.4-0.3,0.8-0.6,1.2-0.9c0.3-0.3,0.7-0.5,1-0.8c0.1-0.1,0.2-0.2,0.3-0.2c0-0.5,0.1-0.9,0.1-1.4
			c0-0.6,0.1-1.2,0.2-1.8c0.1-0.9,0.2-1.8,0.3-2.7c0.1-0.6,0.1-1.2,0.2-1.7c0.1-0.9,0.3-1.8,0.4-2.7c0.1-0.5,0.2-1.1,0.3-1.6
			c0.2-1,0.4-2,0.6-2.9c0.1-0.4,0.2-0.8,0.3-1.2c0.3-1.4,0.7-2.7,1.1-4c0-0.1,0.1-0.2,0.1-0.2c0.4-1.2,0.8-2.5,1.2-3.7
			c0.2-0.4,0.3-0.9,0.5-1.3c0.3-0.8,0.6-1.7,1-2.5c0.2-0.5,0.4-1,0.7-1.5c0.2-0.5,0.5-1.1,0.7-1.6v-61.3c-0.1,0.1-0.2,0.1-0.2,0.2
			c-0.7,0.6-1.5,1.2-2.2,1.9c-0.1,0.1-0.2,0.1-0.2,0.2c-0.7,0.6-1.5,1.1-2.3,1.7c-0.2,0.1-0.3,0.2-0.5,0.4c-0.8,0.6-1.7,1.2-2.6,1.7
			c-0.2,0.1-0.3,0.2-0.5,0.3c-0.8,0.5-1.7,1-2.6,1.5c-0.1,0.1-0.3,0.2-0.4,0.3c-1,0.5-2,1.1-3,1.6c-0.2,0.1-0.5,0.2-0.7,0.3
			c-1,0.5-2.1,1-3.2,1.6c0,0-0.1,0-0.1,0c-1.1,0.5-2.3,1-3.4,1.5c-0.3,0.1-0.5,0.2-0.8,0.3c-1.2,0.5-2.3,1-3.5,1.5
			c-0.2,0.1-0.3,0.1-0.5,0.2c-1.1,0.4-2.2,0.9-3.4,1.3c-0.2,0.1-0.5,0.2-0.7,0.3c-1.3,0.5-2.5,0.9-3.8,1.3c-0.3,0.1-0.5,0.2-0.8,0.3
			c-1.2,0.4-2.4,0.8-3.7,1.2c-0.2,0.1-0.3,0.1-0.5,0.2c-1.4,0.4-2.7,0.8-4.1,1.2c-0.3,0.1-0.6,0.2-0.9,0.3c-1.4,0.4-2.9,0.8-4.3,1.2
			c0,0-0.1,0-0.1,0c-1.4,0.4-2.9,0.7-4.4,1.1c-0.3,0.1-0.6,0.2-1,0.2c-1.5,0.4-3,0.7-4.5,1c-0.2,0.1-0.5,0.1-0.7,0.2
			c-1.4,0.3-2.8,0.6-4.2,0.9c-0.3,0.1-0.6,0.1-0.8,0.2c-1.5,0.3-3.1,0.6-4.7,0.9c-0.3,0.1-0.7,0.1-1,0.2c-1.5,0.3-3,0.6-4.5,0.8
			c-0.1,0-0.3,0.1-0.4,0.1c-1.6,0.3-3.2,0.6-4.9,0.8c-0.4,0.1-0.7,0.1-1.1,0.2c-1.6,0.3-3.3,0.5-5,0.8c-0.1,0-0.3,0-0.4,0.1
			c-1.6,0.2-3.2,0.5-4.8,0.7c-0.4,0-0.7,0.1-1.1,0.1c-1.7,0.2-3.4,0.4-5,0.6c-0.3,0-0.6,0.1-0.9,0.1c-1.5,0.2-3.1,0.4-4.6,0.5
			c-0.3,0-0.6,0.1-0.8,0.1c-1.7,0.2-3.4,0.4-5.2,0.5c-0.4,0-0.8,0.1-1.1,0.1c-1.7,0.2-3.4,0.3-5.1,0.4c-0.1,0-0.2,0-0.3,0
			c-1.8,0.1-3.5,0.3-5.3,0.4c-0.4,0-0.8,0.1-1.2,0.1c-1.8,0.1-3.5,0.2-5.3,0.3c-0.2,0-0.4,0-0.6,0c-1.6,0.1-3.2,0.2-4.9,0.3
			c-0.4,0-0.7,0-1.1,0.1c-1.8,0.1-3.5,0.2-5.3,0.2c-0.4,0-0.7,0-1.1,0c-1.6,0.1-3.2,0.1-4.8,0.1c-0.3,0-0.5,0-0.8,0
			c-1.8,0-3.5,0.1-5.3,0.1c-0.4,0-0.8,0-1.2,0c-1.8,0-3.6,0-5.4,0s-3.6,0-5.4,0c-0.4,0-0.8,0-1.2,0c-1.8,0-3.5-0.1-5.3-0.1
			c-0.3,0-0.5,0-0.8,0c-1.6,0-3.2-0.1-4.8-0.1c-0.4,0-0.7,0-1.1,0c-1.8-0.1-3.5-0.1-5.3-0.2c-0.4,0-0.7,0-1.1-0.1
			c-1.6-0.1-3.2-0.2-4.9-0.3c-0.2,0-0.4,0-0.7,0c-1.8-0.1-3.5-0.2-5.3-0.3c-0.4,0-0.8-0.1-1.2-0.1c-1.8-0.1-3.5-0.3-5.3-0.4
			c-0.1,0-0.2,0-0.3,0c-1.7-0.1-3.4-0.3-5-0.4c-0.4,0-0.8-0.1-1.1-0.1c-1.7-0.2-3.4-0.3-5.2-0.5c-0.3,0-0.6-0.1-0.9-0.1
			c-1.5-0.2-3.1-0.3-4.6-0.5c-0.3,0-0.6-0.1-0.9-0.1c-1.7-0.2-3.4-0.4-5-0.6c-0.4,0-0.7-0.1-1.1-0.1c-1.6-0.2-3.2-0.4-4.7-0.7
			c-0.1,0-0.3,0-0.4-0.1c-1.7-0.2-3.3-0.5-5-0.8c-0.4-0.1-0.8-0.1-1.1-0.2c-1.6-0.3-3.3-0.5-4.9-0.8c-0.2,0-0.3-0.1-0.5-0.1
			c-1.5-0.3-3-0.5-4.5-0.8c-0.3-0.1-0.7-0.1-1-0.2c-1.6-0.3-3.1-0.6-4.6-0.9c-0.3-0.1-0.6-0.1-0.9-0.2c-1.4-0.3-2.8-0.6-4.1-0.9
			c-0.2-0.1-0.5-0.1-0.7-0.2c-1.5-0.3-3-0.7-4.5-1c-0.3-0.1-0.7-0.2-1-0.2c-1.5-0.4-2.9-0.7-4.3-1.1c0,0-0.1,0-0.1,0
			c-1.5-0.4-2.9-0.8-4.3-1.2c-0.3-0.1-0.6-0.2-0.9-0.3c-1.4-0.4-2.8-0.8-4.1-1.2c-0.2-0.1-0.4-0.1-0.5-0.2c-1.2-0.4-2.4-0.8-3.6-1.2
			c-0.3-0.1-0.5-0.2-0.8-0.3c-1.3-0.4-2.6-0.9-3.8-1.3c-0.3-0.1-0.5-0.2-0.7-0.3c-1.1-0.4-2.3-0.8-3.4-1.3c-0.2-0.1-0.3-0.1-0.5-0.2
			c-1.2-0.5-2.4-1-3.5-1.5c-0.3-0.1-0.5-0.2-0.8-0.3c-1.2-0.5-2.3-1-3.4-1.5c0,0-0.1,0-0.1,0c-1.1-0.5-2.1-1-3.2-1.5
			c-0.2-0.1-0.5-0.2-0.7-0.4c-1-0.5-2-1.1-3-1.6c-0.2-0.1-0.3-0.2-0.5-0.3c-0.9-0.5-1.7-1-2.6-1.5c-0.2-0.1-0.3-0.2-0.5-0.3
			c-0.9-0.6-1.8-1.1-2.6-1.7c-0.2-0.1-0.4-0.2-0.5-0.4c-0.8-0.6-1.5-1.1-2.3-1.7c-0.1-0.1-0.2-0.1-0.2-0.2c-0.8-0.6-1.5-1.2-2.2-1.8
			c-0.1-0.1-0.2-0.1-0.3-0.2v79.4C947.3,542.6,1012,566.1,1104.9,566.1z M969.9,500.7c2.5-2.3,7-5.1,14.5-5.1
			c7.5,0,12.1,2.8,14.5,5.1c3.3,3.1,5.2,7.4,5.2,12.1c0,9.1-7.4,18.6-19.7,18.6c-12.3,0-19.7-9.4-19.7-18.6
			C964.8,508.1,966.6,503.8,969.9,500.7z"/>
		<path fill="#EE626A" d="M984.5,416.2c5.8,0,9-4,9-7.8c0-1.2-0.3-2.9-1.8-4.2c-1.5-1.4-4-2.2-7.2-2.2c-3.2,0-5.7,0.8-7.2,2.2
			c-1.5,1.4-1.8,3-1.8,4.2C975.5,412.2,978.7,416.2,984.5,416.2z"/>
		<path fill="#EE626A" d="M984.5,624.5c5.8,0,9-4,9-7.8c0-1.2-0.3-2.9-1.8-4.2c-1.5-1.4-4-2.2-7.2-2.2c-3.2,0-5.7,0.8-7.2,2.2
			c-1.5,1.4-1.8,3-1.8,4.2C975.5,620.4,978.7,624.5,984.5,624.5z"/>
		<path fill="#EE626A" d="M1271.6,589.1l-86,80.2c0,0,0,0,0,0l-57.7,53.9l10,54.6l17.6,23.7l12.3-15.9c0.5-0.7,1.3-1.3,2.1-1.6
			l21.8-9.6l5.4-36.2c0.3-2,1.7-3.7,3.6-4.3l35-11.7l4.5-33.9c0.3-2.4,2.2-4.3,4.6-4.6l27.3-3.6l44.7-53.6c1.8-2.1,4.8-2.5,7.1-1
			c10.3,6.8,21.8,10.3,34.4,10.3c0,0,0,0,0,0c18.6,0,37.9-7.6,57.3-22.6c17.3-13.4,28.1-35,29.7-59.5c1.7-25.8-7.6-50.7-25.3-68.5
			c-15.8-15.8-36.6-24.1-60.3-24.1c-27.2,0-55.3,11.2-75.2,30.1c-4.7,4.4-8.5,9.6-11.6,15.9c0,0,0,0,0,0c-3.8,7.6-6.1,16.2-6.9,25.7
			c-0.1,1.4-0.2,2.7-0.3,4.1c-1,24.3,7.3,46.1,7.4,46.3c0.2,0.5,0.3,1,0.3,1.6c0.1,1.3-0.3,2.6-1.1,3.7
			C1272,588.7,1271.8,588.9,1271.6,589.1z M1361.6,508.6c2.7-1.3,5.6-1.9,8.5-1.9c9.4,0,18.4,6.7,20.9,15.5
			c2.4,8.2-1.2,16.2-9.6,21.5c-3.9,2.5-7.9,3.7-12.1,3.7c-9.4,0-17.8-6.8-19.9-16.2C1347.9,523.9,1350.2,514.1,1361.6,508.6z"/>
		<path fill="#5EC2BA" d="M1104.9,466.2c92.9,0,157.7-23.5,157.7-44.6v-79.4c-0.1,0.1-0.2,0.1-0.2,0.2c-0.7,0.6-1.5,1.2-2.2,1.9
			c-0.1,0.1-0.2,0.1-0.2,0.2c-0.7,0.6-1.5,1.1-2.3,1.7c-0.2,0.1-0.3,0.2-0.5,0.4c-0.8,0.6-1.7,1.2-2.6,1.7c-0.2,0.1-0.3,0.2-0.5,0.3
			c-0.8,0.5-1.7,1-2.6,1.5c-0.1,0.1-0.3,0.2-0.4,0.2c-1,0.6-2,1.1-3,1.6c-0.2,0.1-0.4,0.2-0.7,0.3c-1,0.5-2.1,1.1-3.2,1.6
			c0,0,0,0-0.1,0c-1.1,0.5-2.3,1-3.4,1.5c-0.2,0.1-0.5,0.2-0.7,0.3c-1.2,0.5-2.3,1-3.5,1.5c-0.1,0.1-0.3,0.1-0.4,0.2
			c-1.1,0.4-2.3,0.9-3.4,1.3c-0.2,0.1-0.5,0.2-0.7,0.3c-1.3,0.5-2.5,0.9-3.8,1.3c-0.2,0.1-0.5,0.2-0.8,0.2c-1.2,0.4-2.5,0.8-3.7,1.2
			c-0.2,0-0.3,0.1-0.5,0.1c-1.4,0.4-2.7,0.8-4.1,1.2c-0.3,0.1-0.6,0.2-0.9,0.3c-1.4,0.4-2.9,0.8-4.3,1.2c0,0,0,0-0.1,0
			c-1.5,0.4-2.9,0.8-4.4,1.1c-0.3,0.1-0.6,0.2-0.9,0.2c-1.5,0.4-3,0.7-4.5,1.1c-0.2,0.1-0.5,0.1-0.7,0.2c-1.4,0.3-2.8,0.6-4.2,0.9
			c-0.3,0.1-0.5,0.1-0.8,0.2c-1.5,0.3-3.1,0.6-4.7,0.9c-0.3,0.1-0.6,0.1-0.9,0.2c-1.5,0.3-3,0.6-4.5,0.8c-0.1,0-0.3,0-0.4,0.1
			c-1.6,0.3-3.3,0.6-4.9,0.8c-0.4,0.1-0.7,0.1-1.1,0.2c-1.7,0.3-3.3,0.5-5,0.8c-0.1,0-0.2,0-0.3,0c-1.6,0.2-3.2,0.5-4.8,0.7
			c-0.4,0-0.7,0.1-1.1,0.1c-1.7,0.2-3.4,0.4-5.1,0.6c-0.3,0-0.6,0.1-0.9,0.1c-1.5,0.2-3.1,0.4-4.6,0.5c-0.3,0-0.6,0.1-0.8,0.1
			c-1.7,0.2-3.4,0.4-5.2,0.5c-0.4,0-0.8,0.1-1.1,0.1c-1.7,0.2-3.4,0.3-5.1,0.4c-0.1,0-0.2,0-0.3,0c-1.8,0.1-3.5,0.3-5.3,0.4
			c-0.4,0-0.8,0.1-1.2,0.1c-1.8,0.1-3.5,0.2-5.3,0.3c-0.2,0-0.4,0-0.6,0c-1.6,0.1-3.3,0.2-4.9,0.3c-0.4,0-0.7,0-1.1,0.1
			c-1.8,0.1-3.5,0.2-5.3,0.2c-0.3,0-0.7,0-1,0c-1.6,0.1-3.2,0.1-4.8,0.1c-0.3,0-0.5,0-0.8,0c-1.8,0-3.5,0.1-5.3,0.1
			c-0.4,0-0.8,0-1.2,0c-1.8,0-3.6,0-5.4,0s-3.6,0-5.4,0c-0.4,0-0.8,0-1.2,0c-1.8,0-3.5-0.1-5.3-0.1c-0.3,0-0.5,0-0.8,0
			c-1.6,0-3.2-0.1-4.8-0.1c-0.3,0-0.7,0-1,0c-1.8-0.1-3.5-0.1-5.3-0.2c-0.4,0-0.7,0-1.1-0.1c-1.6-0.1-3.3-0.2-4.9-0.3
			c-0.2,0-0.4,0-0.6,0c-1.8-0.1-3.5-0.2-5.3-0.3c-0.4,0-0.8-0.1-1.2-0.1c-1.8-0.1-3.5-0.3-5.3-0.4c-0.1,0-0.2,0-0.3,0
			c-1.7-0.1-3.4-0.3-5-0.4c-0.4,0-0.8-0.1-1.1-0.1c-1.7-0.2-3.4-0.3-5.2-0.5c-0.3,0-0.6-0.1-0.9-0.1c-1.5-0.2-3.1-0.3-4.6-0.5
			c-0.3,0-0.6-0.1-0.9-0.1c-1.7-0.2-3.4-0.4-5-0.6c-0.4,0-0.7-0.1-1.1-0.1c-1.6-0.2-3.2-0.4-4.8-0.7c-0.1,0-0.2,0-0.4-0.1
			c-1.7-0.2-3.3-0.5-5-0.8c-0.4-0.1-0.7-0.1-1.1-0.2c-1.6-0.3-3.3-0.5-4.9-0.8c-0.1,0-0.3-0.1-0.4-0.1c-1.5-0.3-3-0.5-4.5-0.8
			c-0.3-0.1-0.6-0.1-1-0.2c-1.6-0.3-3.1-0.6-4.7-0.9c-0.3-0.1-0.6-0.1-0.8-0.2c-1.4-0.3-2.8-0.6-4.2-0.9c-0.2-0.1-0.5-0.1-0.7-0.2
			c-1.5-0.3-3-0.7-4.5-1.1c-0.3-0.1-0.6-0.2-0.9-0.2c-1.5-0.4-2.9-0.7-4.4-1.1c0,0-0.1,0-0.1,0c-1.5-0.4-2.9-0.8-4.3-1.2
			c-0.3-0.1-0.6-0.2-0.9-0.3c-1.4-0.4-2.8-0.8-4.1-1.2c-0.2-0.1-0.3-0.1-0.5-0.2c-1.2-0.4-2.5-0.8-3.7-1.2c-0.3-0.1-0.5-0.2-0.8-0.3
			c-1.3-0.4-2.6-0.9-3.8-1.3c-0.2-0.1-0.5-0.2-0.7-0.3c-1.2-0.4-2.3-0.9-3.4-1.3c-0.2-0.1-0.3-0.1-0.5-0.2c-1.2-0.5-2.4-1-3.5-1.5
			c-0.3-0.1-0.5-0.2-0.8-0.3c-1.2-0.5-2.3-1-3.4-1.5c0,0,0,0-0.1,0c-1.1-0.5-2.1-1-3.2-1.6c-0.2-0.1-0.5-0.2-0.7-0.3
			c-1-0.5-2-1.1-3-1.6c-0.1-0.1-0.3-0.2-0.4-0.3c-0.9-0.5-1.7-1-2.6-1.5c-0.2-0.1-0.3-0.2-0.5-0.3c-0.9-0.6-1.8-1.1-2.6-1.7
			c-0.2-0.1-0.3-0.2-0.5-0.4c-0.8-0.6-1.5-1.1-2.3-1.7c-0.1-0.1-0.2-0.1-0.2-0.2c-0.8-0.6-1.5-1.2-2.2-1.9c-0.1-0.1-0.2-0.1-0.2-0.2
			v79.4C947.3,442.7,1012,466.2,1104.9,466.2z M969.9,396.3c2.5-2.3,7-5.1,14.5-5.1c7.5,0,12.1,2.8,14.5,5.1
			c3.3,3.1,5.2,7.4,5.2,12.1c0,9.1-7.4,18.6-19.7,18.6c-12.3,0-19.7-9.4-19.7-18.6C964.8,403.7,966.6,399.5,969.9,396.3z"/>
		<path fill="#5EC2BA" d="M1104.9,665.9c25.9,0,51.7-1.9,74.5-5.6l82.3-76.7c-0.1-0.4-0.3-0.9-0.4-1.4c-0.1-0.2-0.1-0.3-0.2-0.5
			c-0.1-0.4-0.2-0.7-0.3-1.1c-0.1-0.2-0.1-0.4-0.2-0.7c-0.1-0.4-0.2-0.8-0.3-1.2c-0.1-0.2-0.1-0.5-0.2-0.7c-0.1-0.5-0.3-1-0.4-1.5
			c-0.1-0.2-0.1-0.4-0.2-0.6c-0.2-0.7-0.4-1.5-0.6-2.2c0-0.2-0.1-0.4-0.1-0.6c-0.1-0.6-0.3-1.2-0.4-1.9c-0.1-0.3-0.1-0.6-0.2-0.9
			c-0.1-0.6-0.2-1.1-0.4-1.7c-0.1-0.3-0.1-0.7-0.2-1c-0.1-0.6-0.2-1.2-0.4-1.9c-0.1-0.3-0.1-0.6-0.2-0.9c-0.2-0.9-0.3-1.8-0.5-2.7
			c0-0.1,0-0.2,0-0.3c-0.2-1-0.3-2-0.5-3c0-0.3-0.1-0.6-0.1-0.9c-0.1-0.7-0.2-1.5-0.3-2.2c0-0.4-0.1-0.8-0.1-1.2
			c-0.1-0.7-0.1-1.4-0.2-2.2c0-0.4-0.1-0.8-0.1-1.2c-0.1-0.8-0.1-1.6-0.2-2.5c0-0.3,0-0.6-0.1-0.9c0-0.1,0-0.2,0-0.2
			c-0.2,0.2-0.5,0.3-0.7,0.5c-0.4,0.3-0.8,0.5-1.3,0.8c-0.6,0.3-1.1,0.7-1.7,1c-0.4,0.2-0.9,0.5-1.3,0.7c-0.6,0.3-1.3,0.7-1.9,1
			c-0.4,0.2-0.9,0.5-1.3,0.7c-0.7,0.4-1.5,0.7-2.2,1.1c-0.4,0.2-0.8,0.4-1.2,0.6c-1.1,0.5-2.3,1-3.5,1.6c-0.2,0.1-0.3,0.1-0.5,0.2
			c-1.1,0.5-2.2,0.9-3.3,1.4c-0.5,0.2-0.9,0.4-1.4,0.5c-0.8,0.3-1.7,0.6-2.5,1c-0.5,0.2-1.1,0.4-1.7,0.6c-0.8,0.3-1.6,0.6-2.4,0.9
			c-0.6,0.2-1.2,0.4-1.8,0.6c-0.8,0.3-1.6,0.5-2.5,0.8c-0.6,0.2-1.2,0.4-1.9,0.6c-0.8,0.3-1.7,0.5-2.6,0.8c-0.6,0.2-1.3,0.4-1.9,0.6
			c-0.9,0.3-1.8,0.5-2.7,0.8c-0.6,0.2-1.2,0.3-1.9,0.5c-1,0.3-2.1,0.5-3.1,0.8c-0.5,0.1-1.1,0.3-1.6,0.4c-1.6,0.4-3.2,0.8-4.9,1.2
			c-0.1,0-0.2,0-0.3,0.1c-1.5,0.3-3.1,0.7-4.7,1c-0.6,0.1-1.2,0.2-1.8,0.4c-1.1,0.2-2.2,0.5-3.4,0.7c-0.7,0.1-1.4,0.3-2.1,0.4
			c-1.1,0.2-2.1,0.4-3.2,0.6c-0.7,0.1-1.5,0.3-2.2,0.4c-1,0.2-2.1,0.4-3.2,0.5c-0.8,0.1-1.5,0.3-2.3,0.4c-1.1,0.2-2.2,0.3-3.2,0.5
			c-0.8,0.1-1.5,0.2-2.3,0.3c-1.1,0.2-2.3,0.3-3.4,0.5c-0.7,0.1-1.5,0.2-2.2,0.3c-1.3,0.2-2.5,0.3-3.8,0.5c-0.7,0.1-1.3,0.2-2,0.2
			c-1.9,0.2-3.9,0.4-5.8,0.6c-0.1,0-0.1,0-0.2,0c-1.9,0.2-3.8,0.4-5.7,0.6c-0.7,0.1-1.3,0.1-2,0.2c-1.3,0.1-2.7,0.2-4,0.3
			c-0.8,0.1-1.6,0.1-2.4,0.2c-1.2,0.1-2.5,0.2-3.7,0.3c-0.8,0.1-1.7,0.1-2.6,0.2c-1.2,0.1-2.4,0.1-3.7,0.2c-0.9,0-1.7,0.1-2.6,0.1
			c-1.2,0.1-2.5,0.1-3.7,0.2c-0.9,0-1.7,0.1-2.6,0.1c-1.3,0-2.6,0.1-3.9,0.1c-0.8,0-1.6,0-2.4,0.1c-1.4,0-2.9,0.1-4.3,0.1
			c-0.7,0-1.4,0-2.1,0c-2.1,0-4.3,0-6.4,0c-1.8,0-3.6,0-5.4,0c-0.4,0-0.8,0-1.2,0c-1.8,0-3.5-0.1-5.3-0.1c-0.3,0-0.5,0-0.8,0
			c-1.6,0-3.2-0.1-4.8-0.1c-0.4,0-0.7,0-1.1,0c-1.8-0.1-3.5-0.1-5.3-0.2c-0.4,0-0.7,0-1.1-0.1c-1.6-0.1-3.2-0.2-4.9-0.3
			c-0.2,0-0.4,0-0.7,0c-1.8-0.1-3.5-0.2-5.3-0.3c-0.4,0-0.8-0.1-1.2-0.1c-1.8-0.1-3.5-0.3-5.3-0.4c-0.1,0-0.2,0-0.3,0
			c-1.7-0.1-3.4-0.3-5-0.4c-0.4,0-0.8-0.1-1.1-0.1c-1.7-0.2-3.4-0.3-5.2-0.5c-0.3,0-0.6-0.1-0.9-0.1c-1.5-0.2-3.1-0.3-4.6-0.5
			c-0.3,0-0.6-0.1-0.9-0.1c-1.7-0.2-3.4-0.4-5-0.6c-0.4,0-0.7-0.1-1.1-0.1c-1.6-0.2-3.2-0.4-4.7-0.7c-0.1,0-0.3,0-0.4-0.1
			c-1.7-0.2-3.3-0.5-5-0.8c-0.4-0.1-0.8-0.1-1.1-0.2c-1.6-0.3-3.3-0.5-4.9-0.8c-0.2,0-0.3-0.1-0.5-0.1c-1.5-0.3-3-0.5-4.5-0.8
			c-0.3-0.1-0.7-0.1-1-0.2c-1.6-0.3-3.1-0.6-4.6-0.9c-0.3-0.1-0.6-0.1-0.9-0.2c-1.4-0.3-2.8-0.6-4.1-0.9c-0.2-0.1-0.5-0.1-0.7-0.2
			c-1.5-0.3-3-0.7-4.5-1c-0.3-0.1-0.7-0.2-1-0.2c-1.5-0.4-2.9-0.7-4.3-1.1c0,0-0.1,0-0.1,0c-1.5-0.4-2.9-0.8-4.3-1.2
			c-0.3-0.1-0.6-0.2-0.9-0.3c-1.4-0.4-2.8-0.8-4.1-1.2c-0.2-0.1-0.4-0.1-0.5-0.2c-1.2-0.4-2.4-0.8-3.6-1.2c-0.3-0.1-0.5-0.2-0.8-0.3
			c-1.3-0.4-2.6-0.9-3.8-1.3c-0.3-0.1-0.5-0.2-0.7-0.3c-1.1-0.4-2.3-0.8-3.4-1.3c-0.2-0.1-0.3-0.1-0.5-0.2c-1.2-0.5-2.4-1-3.5-1.5
			c-0.3-0.1-0.5-0.2-0.8-0.3c-1.2-0.5-2.3-1-3.4-1.5c0,0-0.1,0-0.1,0c-1.1-0.5-2.1-1-3.2-1.5c-0.2-0.1-0.5-0.2-0.7-0.4
			c-1-0.5-2-1.1-3-1.6c-0.2-0.1-0.3-0.2-0.5-0.3c-0.9-0.5-1.7-1-2.6-1.5c-0.2-0.1-0.3-0.2-0.5-0.3c-0.9-0.6-1.8-1.1-2.6-1.7
			c-0.2-0.1-0.4-0.2-0.5-0.4c-0.8-0.6-1.5-1.1-2.3-1.7c-0.1-0.1-0.2-0.1-0.2-0.2c-0.8-0.6-1.5-1.2-2.2-1.8c-0.1-0.1-0.2-0.1-0.3-0.2
			v79.4C947.3,642.4,1012,665.9,1104.9,665.9z M969.9,604.6c2.5-2.3,7-5.1,14.5-5.1c7.5,0,12.1,2.8,14.5,5.1
			c3.3,3.1,5.2,7.4,5.2,12.1c0,9.1-7.4,18.6-19.7,18.6c-12.3,0-19.7-9.4-19.7-18.6C964.8,612,966.6,607.7,969.9,604.6z"/>
		<path fill="#EE626A" d="M1104.9,366.3c92.9,0,157.7-23.5,157.7-44.6c0-21.1-64.8-44.6-157.7-44.6c-92.9,0-157.7,23.5-157.7,44.6
			C947.3,342.8,1012,366.3,1104.9,366.3z"/>
		<path fill="#541900" d="M984.5,427c12.3,0,19.7-9.4,19.7-18.6c0-4.7-1.8-8.9-5.2-12.1c-2.5-2.3-7-5.1-14.5-5.1
			c-7.5,0-12.1,2.8-14.5,5.1c-3.3,3.1-5.2,7.4-5.2,12.1C964.8,417.5,972.1,427,984.5,427z M977.3,404.2c1.5-1.4,4-2.2,7.2-2.2
			c3.2,0,5.7,0.8,7.2,2.2c1.5,1.4,1.8,3,1.8,4.2c0,3.8-3.1,7.8-9,7.8c-5.8,0-9-4-9-7.8C975.5,407.2,975.8,405.6,977.3,404.2z"/>
		<path fill="#541900" d="M984.5,531.3c12.3,0,19.7-9.4,19.7-18.6c0-4.7-1.8-8.9-5.2-12.1c-2.5-2.3-7-5.1-14.5-5.1
			c-7.5,0-12.1,2.8-14.5,5.1c-3.3,3.1-5.2,7.4-5.2,12.1C964.8,521.9,972.1,531.3,984.5,531.3z M977.3,508.6c1.5-1.4,4-2.2,7.2-2.2
			c3.2,0,5.7,0.8,7.2,2.2c1.5,1.4,1.8,3,1.8,4.2c0,3.8-3.1,7.8-9,7.8c-5.8,0-9-4-9-7.8C975.5,511.6,975.8,509.9,977.3,508.6z"/>
		<path fill="#541900" d="M984.5,635.2c12.3,0,19.7-9.4,19.7-18.6c0-4.7-1.8-8.9-5.2-12.1c-2.5-2.3-7-5.1-14.5-5.1
			c-7.5,0-12.1,2.8-14.5,5.1c-3.3,3.1-5.2,7.4-5.2,12.1C964.8,625.8,972.1,635.2,984.5,635.2z M977.3,612.4c1.5-1.4,4-2.2,7.2-2.2
			c3.2,0,5.7,0.8,7.2,2.2c1.5,1.4,1.8,3,1.8,4.2c0,3.8-3.1,7.8-9,7.8c-5.8,0-9-4-9-7.8C975.5,615.5,975.8,613.8,977.3,612.4z"/>
		<path fill="#541900" d="M1104.9,676.7c20.8,0,41.6-1.2,60.9-3.6l-47.4,44.2c-1.3,1.2-1.9,3.1-1.6,4.9l10.8,58.8
			c0.1,0.8,0.5,1.6,1,2.2l22.5,30.4c1,1.4,2.6,2.2,4.3,2.2c0,0,0,0,0.1,0c1.7,0,3.2-0.8,4.2-2.1l15.8-20.5l23.2-10.2
			c1.7-0.7,2.9-2.3,3.1-4.1l5.4-35.9l35.1-11.7c1.9-0.7,3.4-2.4,3.6-4.4l4.4-33.1l25.3-3.4c1.3-0.2,2.6-0.8,3.4-1.9l43-51.6
			c10.9,6.3,23.4,9.6,36.2,9.6c0,0,0,0,0,0c21,0,42.5-8.4,63.9-24.8c19.8-15.2,32.1-39.8,33.9-67.3c1.9-28.8-8.5-56.8-28.5-76.7
			c-17.8-17.8-41.3-27.2-67.9-27.2c-29.9,0-60.7,12.3-82.6,33c-1.3,1.2-2.5,2.5-3.7,3.8v-65.5v-99.9c0-35.9-86.8-55.3-168.4-55.3
			s-168.4,19.4-168.4,55.3v99.9v99.9v99.9C936.5,657.3,1023.3,676.7,1104.9,676.7z M1273,583.2c-0.1-0.2-8.4-22-7.4-46.3
			c0.1-1.4,0.1-2.8,0.3-4.1c0.8-9.5,3.1-18.1,6.9-25.7c0,0,0,0,0,0c3.1-6.3,6.9-11.5,11.6-15.9c19.9-18.8,48-30.1,75.2-30.1
			c23.7,0,44.5,8.3,60.3,24.1c17.8,17.8,27,42.7,25.3,68.5c-1.6,24.5-12.4,46.1-29.7,59.5c-19.4,15-38.7,22.6-57.3,22.6c0,0,0,0,0,0
			c-12.5,0-24.1-3.5-34.4-10.3c-2.3-1.5-5.3-1.1-7.1,1L1272,680l-27.3,3.6c-2.4,0.3-4.3,2.2-4.6,4.6l-4.5,33.9l-35,11.7
			c-1.9,0.6-3.3,2.3-3.6,4.3l-5.4,36.2l-21.8,9.6c-0.8,0.4-1.5,0.9-2.1,1.6l-12.3,15.9l-17.6-23.7l-10-54.6l57.7-53.9c0,0,0,0,0,0
			l86-80.2c0.2-0.2,0.4-0.4,0.5-0.6c0.8-1.1,1.2-2.4,1.1-3.7C1273.3,584.2,1273.2,583.7,1273,583.2z M1104.9,277.2
			c92.9,0,157.7,23.5,157.7,44.6c0,21.1-64.8,44.6-157.7,44.6c-92.9,0-157.7-23.5-157.7-44.6C947.3,300.6,1012,277.2,1104.9,277.2z
			 M947.3,342.2c0.1,0.1,0.2,0.1,0.2,0.2c0.7,0.6,1.5,1.2,2.2,1.9c0.1,0.1,0.2,0.1,0.2,0.2c0.7,0.6,1.5,1.1,2.3,1.7
			c0.2,0.1,0.3,0.2,0.5,0.4c0.8,0.6,1.7,1.2,2.6,1.7c0.2,0.1,0.3,0.2,0.5,0.3c0.8,0.5,1.7,1,2.6,1.5c0.1,0.1,0.3,0.2,0.4,0.3
			c1,0.5,2,1.1,3,1.6c0.2,0.1,0.5,0.2,0.7,0.3c1,0.5,2.1,1.1,3.2,1.6c0,0,0,0,0.1,0c1.1,0.5,2.3,1,3.4,1.5c0.3,0.1,0.5,0.2,0.8,0.3
			c1.2,0.5,2.3,1,3.5,1.5c0.2,0.1,0.3,0.1,0.5,0.2c1.1,0.4,2.2,0.9,3.4,1.3c0.2,0.1,0.5,0.2,0.7,0.3c1.3,0.5,2.5,0.9,3.8,1.3
			c0.3,0.1,0.5,0.2,0.8,0.3c1.2,0.4,2.4,0.8,3.7,1.2c0.2,0.1,0.3,0.1,0.5,0.2c1.4,0.4,2.7,0.8,4.1,1.2c0.3,0.1,0.6,0.2,0.9,0.3
			c1.4,0.4,2.8,0.8,4.3,1.2c0,0,0.1,0,0.1,0c1.4,0.4,2.9,0.7,4.4,1.1c0.3,0.1,0.6,0.2,0.9,0.2c1.5,0.4,3,0.7,4.5,1.1
			c0.2,0.1,0.5,0.1,0.7,0.2c1.4,0.3,2.8,0.6,4.2,0.9c0.3,0.1,0.6,0.1,0.8,0.2c1.5,0.3,3.1,0.6,4.7,0.9c0.3,0.1,0.6,0.1,1,0.2
			c1.5,0.3,3,0.6,4.5,0.8c0.1,0,0.3,0.1,0.4,0.1c1.6,0.3,3.3,0.6,4.9,0.8c0.4,0.1,0.7,0.1,1.1,0.2c1.7,0.3,3.3,0.5,5,0.8
			c0.1,0,0.2,0,0.4,0.1c1.6,0.2,3.2,0.5,4.8,0.7c0.4,0,0.7,0.1,1.1,0.1c1.7,0.2,3.4,0.4,5,0.6c0.3,0,0.6,0.1,0.9,0.1
			c1.5,0.2,3.1,0.4,4.6,0.5c0.3,0,0.6,0.1,0.9,0.1c1.7,0.2,3.4,0.4,5.2,0.5c0.4,0,0.8,0.1,1.1,0.1c1.7,0.2,3.4,0.3,5,0.4
			c0.1,0,0.2,0,0.3,0c1.8,0.1,3.5,0.3,5.3,0.4c0.4,0,0.8,0.1,1.2,0.1c1.8,0.1,3.5,0.2,5.3,0.3c0.2,0,0.4,0,0.6,0
			c1.6,0.1,3.3,0.2,4.9,0.3c0.4,0,0.7,0,1.1,0.1c1.8,0.1,3.5,0.2,5.3,0.2c0.3,0,0.7,0,1,0c1.6,0.1,3.2,0.1,4.8,0.1
			c0.3,0,0.5,0,0.8,0c1.8,0,3.5,0.1,5.3,0.1c0.4,0,0.8,0,1.2,0c1.8,0,3.6,0,5.4,0s3.6,0,5.4,0c0.4,0,0.8,0,1.2,0
			c1.8,0,3.5-0.1,5.3-0.1c0.3,0,0.5,0,0.8,0c1.6,0,3.2-0.1,4.8-0.1c0.3,0,0.7,0,1,0c1.8-0.1,3.5-0.1,5.3-0.2c0.4,0,0.7,0,1.1-0.1
			c1.6-0.1,3.3-0.2,4.9-0.3c0.2,0,0.4,0,0.6,0c1.8-0.1,3.5-0.2,5.3-0.3c0.4,0,0.8-0.1,1.2-0.1c1.8-0.1,3.5-0.3,5.3-0.4
			c0.1,0,0.2,0,0.3,0c1.7-0.1,3.4-0.3,5.1-0.4c0.4,0,0.8-0.1,1.1-0.1c1.7-0.2,3.4-0.3,5.2-0.5c0.3,0,0.6-0.1,0.8-0.1
			c1.6-0.2,3.1-0.3,4.6-0.5c0.3,0,0.6-0.1,0.9-0.1c1.7-0.2,3.4-0.4,5.1-0.6c0.4,0,0.7-0.1,1.1-0.1c1.6-0.2,3.2-0.4,4.8-0.7
			c0.1,0,0.2,0,0.3,0c1.7-0.2,3.3-0.5,5-0.8c0.4-0.1,0.7-0.1,1.1-0.2c1.6-0.3,3.3-0.5,4.9-0.8c0.1,0,0.3,0,0.4-0.1
			c1.5-0.3,3-0.5,4.5-0.8c0.3-0.1,0.6-0.1,0.9-0.2c1.6-0.3,3.1-0.6,4.7-0.9c0.3-0.1,0.5-0.1,0.8-0.2c1.4-0.3,2.8-0.6,4.2-0.9
			c0.2-0.1,0.5-0.1,0.7-0.2c1.5-0.3,3-0.7,4.5-1.1c0.3-0.1,0.6-0.1,0.9-0.2c1.5-0.4,3-0.7,4.4-1.1c0,0,0,0,0.1,0
			c1.5-0.4,2.9-0.8,4.3-1.2c0.3-0.1,0.6-0.2,0.9-0.3c1.4-0.4,2.8-0.8,4.1-1.2c0.2,0,0.3-0.1,0.5-0.1c1.3-0.4,2.5-0.8,3.7-1.2
			c0.3-0.1,0.5-0.2,0.8-0.2c1.3-0.4,2.6-0.9,3.8-1.3c0.2-0.1,0.5-0.2,0.7-0.3c1.2-0.4,2.3-0.9,3.4-1.3c0.1-0.1,0.3-0.1,0.4-0.2
			c1.2-0.5,2.4-1,3.5-1.5c0.2-0.1,0.5-0.2,0.7-0.3c1.2-0.5,2.3-1,3.4-1.5c0,0,0,0,0.1,0c1.1-0.5,2.2-1,3.2-1.6
			c0.2-0.1,0.4-0.2,0.7-0.3c1-0.5,2-1.1,3-1.6c0.1-0.1,0.3-0.2,0.4-0.2c0.9-0.5,1.7-1,2.6-1.5c0.2-0.1,0.3-0.2,0.5-0.3
			c0.9-0.6,1.8-1.1,2.6-1.7c0.2-0.1,0.3-0.2,0.5-0.4c0.8-0.6,1.6-1.1,2.3-1.7c0.1-0.1,0.2-0.1,0.2-0.2c0.8-0.6,1.5-1.2,2.2-1.9
			c0.1-0.1,0.2-0.1,0.2-0.2v79.4c0,21.1-64.8,44.6-157.7,44.6c-92.9,0-157.7-23.5-157.7-44.6V342.2z M947.3,442.1
			c0.1,0.1,0.2,0.1,0.3,0.2c0.7,0.6,1.5,1.2,2.2,1.8c0.1,0.1,0.2,0.1,0.2,0.2c0.7,0.6,1.5,1.1,2.3,1.7c0.2,0.1,0.4,0.2,0.5,0.4
			c0.8,0.6,1.7,1.2,2.6,1.7c0.2,0.1,0.3,0.2,0.5,0.3c0.8,0.5,1.7,1,2.6,1.5c0.2,0.1,0.3,0.2,0.5,0.3c1,0.5,2,1.1,3,1.6
			c0.2,0.1,0.5,0.2,0.7,0.4c1,0.5,2.1,1,3.2,1.5c0,0,0.1,0,0.1,0c1.1,0.5,2.2,1,3.4,1.5c0.3,0.1,0.5,0.2,0.8,0.3
			c1.2,0.5,2.3,1,3.5,1.5c0.2,0.1,0.3,0.1,0.5,0.2c1.1,0.4,2.2,0.9,3.4,1.3c0.2,0.1,0.5,0.2,0.7,0.3c1.2,0.5,2.5,0.9,3.8,1.3
			c0.3,0.1,0.5,0.2,0.8,0.3c1.2,0.4,2.4,0.8,3.6,1.2c0.2,0.1,0.4,0.1,0.5,0.2c1.3,0.4,2.7,0.8,4.1,1.2c0.3,0.1,0.6,0.2,0.9,0.3
			c1.4,0.4,2.8,0.8,4.3,1.2c0,0,0.1,0,0.1,0c1.4,0.4,2.9,0.7,4.3,1.1c0.3,0.1,0.7,0.2,1,0.2c1.5,0.4,3,0.7,4.5,1
			c0.2,0.1,0.5,0.1,0.7,0.2c1.4,0.3,2.7,0.6,4.1,0.9c0.3,0.1,0.6,0.1,0.9,0.2c1.5,0.3,3.1,0.6,4.6,0.9c0.3,0.1,0.7,0.1,1,0.2
			c1.5,0.3,3,0.6,4.5,0.8c0.2,0,0.3,0.1,0.5,0.1c1.6,0.3,3.2,0.6,4.9,0.8c0.4,0.1,0.8,0.1,1.1,0.2c1.6,0.3,3.3,0.5,5,0.8
			c0.1,0,0.3,0,0.4,0.1c1.6,0.2,3.1,0.4,4.7,0.7c0.4,0,0.7,0.1,1.1,0.1c1.7,0.2,3.3,0.4,5,0.6c0.3,0,0.6,0.1,0.9,0.1
			c1.5,0.2,3.1,0.4,4.6,0.5c0.3,0,0.6,0.1,0.9,0.1c1.7,0.2,3.4,0.4,5.2,0.5c0.4,0,0.8,0.1,1.1,0.1c1.7,0.2,3.4,0.3,5,0.4
			c0.1,0,0.2,0,0.3,0c1.8,0.1,3.5,0.3,5.3,0.4c0.4,0,0.8,0.1,1.2,0.1c1.8,0.1,3.5,0.2,5.3,0.3c0.2,0,0.4,0,0.7,0
			c1.6,0.1,3.2,0.2,4.9,0.3c0.4,0,0.7,0,1.1,0.1c1.8,0.1,3.5,0.2,5.3,0.2c0.4,0,0.7,0,1.1,0c1.6,0.1,3.2,0.1,4.8,0.1
			c0.3,0,0.5,0,0.8,0c1.8,0,3.5,0.1,5.3,0.1c0.4,0,0.8,0,1.2,0c1.8,0,3.6,0,5.4,0s3.6,0,5.4,0c0.4,0,0.8,0,1.2,0
			c1.8,0,3.5-0.1,5.3-0.1c0.3,0,0.5,0,0.8,0c1.6,0,3.2-0.1,4.8-0.1c0.4,0,0.7,0,1.1,0c1.8-0.1,3.5-0.1,5.3-0.2c0.4,0,0.7,0,1.1-0.1
			c1.6-0.1,3.3-0.2,4.9-0.3c0.2,0,0.4,0,0.6,0c1.8-0.1,3.5-0.2,5.3-0.3c0.4,0,0.8-0.1,1.2-0.1c1.8-0.1,3.5-0.3,5.3-0.4
			c0.1,0,0.2,0,0.3,0c1.7-0.1,3.4-0.3,5.1-0.4c0.4,0,0.8-0.1,1.1-0.1c1.7-0.2,3.4-0.3,5.2-0.5c0.3,0,0.6-0.1,0.8-0.1
			c1.6-0.2,3.1-0.3,4.6-0.5c0.3,0,0.6-0.1,0.9-0.1c1.7-0.2,3.4-0.4,5-0.6c0.4,0,0.7-0.1,1.1-0.1c1.6-0.2,3.2-0.4,4.8-0.7
			c0.1,0,0.3,0,0.4-0.1c1.7-0.2,3.3-0.5,5-0.8c0.4-0.1,0.7-0.1,1.1-0.2c1.6-0.3,3.3-0.5,4.9-0.8c0.1,0,0.3-0.1,0.4-0.1
			c1.5-0.3,3-0.5,4.5-0.8c0.3-0.1,0.7-0.1,1-0.2c1.6-0.3,3.1-0.6,4.7-0.9c0.3-0.1,0.6-0.1,0.8-0.2c1.4-0.3,2.8-0.6,4.2-0.9
			c0.2-0.1,0.5-0.1,0.7-0.2c1.5-0.3,3-0.7,4.5-1c0.3-0.1,0.6-0.2,1-0.2c1.5-0.4,2.9-0.7,4.4-1.1c0,0,0.1,0,0.1,0
			c1.5-0.4,2.9-0.8,4.3-1.2c0.3-0.1,0.6-0.2,0.9-0.3c1.4-0.4,2.8-0.8,4.1-1.2c0.2-0.1,0.3-0.1,0.5-0.2c1.2-0.4,2.5-0.8,3.7-1.2
			c0.3-0.1,0.5-0.2,0.8-0.3c1.3-0.4,2.6-0.9,3.8-1.3c0.2-0.1,0.5-0.2,0.7-0.3c1.1-0.4,2.3-0.9,3.4-1.3c0.2-0.1,0.3-0.1,0.5-0.2
			c1.2-0.5,2.4-1,3.5-1.5c0.3-0.1,0.5-0.2,0.8-0.3c1.2-0.5,2.3-1,3.4-1.5c0,0,0.1,0,0.1,0c1.1-0.5,2.1-1,3.2-1.6
			c0.2-0.1,0.5-0.2,0.7-0.3c1-0.5,2-1.1,3-1.6c0.2-0.1,0.3-0.2,0.4-0.3c0.9-0.5,1.7-1,2.6-1.5c0.2-0.1,0.3-0.2,0.5-0.3
			c0.9-0.6,1.8-1.1,2.6-1.7c0.2-0.1,0.3-0.2,0.5-0.4c0.8-0.6,1.5-1.1,2.3-1.7c0.1-0.1,0.2-0.1,0.2-0.2c0.8-0.6,1.5-1.2,2.2-1.9
			c0.1-0.1,0.2-0.1,0.2-0.2v61.3c-0.2,0.5-0.5,1.1-0.7,1.6c-0.2,0.5-0.4,1-0.7,1.5c-0.3,0.8-0.7,1.7-1,2.5c-0.2,0.4-0.3,0.9-0.5,1.3
			c-0.4,1.2-0.8,2.4-1.2,3.7c0,0.1-0.1,0.2-0.1,0.2c-0.4,1.3-0.8,2.7-1.1,4c-0.1,0.4-0.2,0.8-0.3,1.2c-0.2,1-0.4,1.9-0.6,2.9
			c-0.1,0.5-0.2,1-0.3,1.6c-0.2,0.9-0.3,1.8-0.4,2.7c-0.1,0.6-0.1,1.1-0.2,1.7c-0.1,0.9-0.2,1.8-0.3,2.7c-0.1,0.6-0.1,1.2-0.2,1.8
			c0,0.5-0.1,0.9-0.1,1.4c-0.1,0.1-0.2,0.2-0.3,0.2c-0.3,0.3-0.7,0.5-1,0.8c-0.4,0.3-0.8,0.6-1.2,0.9c-0.4,0.3-0.7,0.5-1.1,0.8
			c-0.4,0.3-0.9,0.6-1.3,0.9c-0.4,0.3-0.8,0.5-1.2,0.8c-0.5,0.3-0.9,0.6-1.4,0.9c-0.4,0.3-0.9,0.5-1.3,0.8c-0.5,0.3-1,0.6-1.5,0.9
			c-0.5,0.3-1,0.5-1.4,0.8c-0.5,0.3-1.1,0.6-1.7,0.8c-0.5,0.3-1,0.5-1.5,0.7c-0.6,0.3-1.2,0.6-1.8,0.8c-0.5,0.2-1.1,0.5-1.6,0.7
			c-0.6,0.3-1.2,0.5-1.9,0.8c-0.6,0.2-1.2,0.5-1.7,0.7c-0.6,0.3-1.3,0.5-1.9,0.8c-0.6,0.2-1.2,0.5-1.8,0.7c-0.7,0.2-1.3,0.5-2,0.7
			c-0.6,0.2-1.3,0.5-1.9,0.7c-0.7,0.2-1.4,0.5-2.1,0.7c-0.7,0.2-1.3,0.4-2,0.7c-0.7,0.2-1.5,0.5-2.2,0.7c-0.7,0.2-1.4,0.4-2.1,0.6
			c-0.7,0.2-1.5,0.4-2.3,0.7c-0.7,0.2-1.5,0.4-2.2,0.6c-0.8,0.2-1.6,0.4-2.3,0.6c-0.8,0.2-1.5,0.4-2.3,0.6c-0.8,0.2-1.6,0.4-2.4,0.6
			c-0.8,0.2-1.6,0.4-2.4,0.6c-0.8,0.2-1.6,0.4-2.5,0.6c-0.8,0.2-1.6,0.4-2.4,0.5c-0.8,0.2-1.7,0.4-2.6,0.5c-0.8,0.2-1.6,0.3-2.5,0.5
			c-0.9,0.2-1.8,0.3-2.6,0.5c-0.8,0.2-1.7,0.3-2.6,0.5c-0.9,0.2-1.8,0.3-2.7,0.5c-0.9,0.2-1.7,0.3-2.6,0.5c-0.9,0.2-1.8,0.3-2.7,0.4
			c-0.9,0.1-1.8,0.3-2.7,0.4c-0.9,0.1-1.9,0.3-2.8,0.4c-0.9,0.1-1.8,0.3-2.7,0.4c-1,0.1-1.9,0.3-2.9,0.4c-0.9,0.1-1.8,0.2-2.8,0.4
			c-1,0.1-2,0.2-2.9,0.4c-0.9,0.1-1.9,0.2-2.8,0.3c-1,0.1-2,0.2-3,0.3c-0.9,0.1-1.9,0.2-2.8,0.3c-1,0.1-2,0.2-3.1,0.3
			c-0.9,0.1-1.9,0.2-2.9,0.3c-1.1,0.1-2.1,0.2-3.2,0.3c-0.9,0.1-1.9,0.2-2.8,0.2c-1.1,0.1-2.2,0.2-3.3,0.2c-0.9,0.1-1.9,0.1-2.8,0.2
			c-1.1,0.1-2.2,0.1-3.3,0.2c-0.9,0.1-1.9,0.1-2.8,0.2c-1.2,0.1-2.3,0.1-3.5,0.2c-0.9,0-1.8,0.1-2.7,0.1c-1.2,0-2.5,0.1-3.7,0.1
			c-0.9,0-1.7,0.1-2.6,0.1c-1.4,0-2.8,0.1-4.3,0.1c-0.7,0-1.4,0-2,0c-2.1,0-4.2,0-6.4,0c-92.9,0-157.7-23.5-157.7-44.6V442.1z
			 M947.3,542c0.1,0.1,0.2,0.1,0.3,0.2c0.7,0.6,1.5,1.2,2.2,1.8c0.1,0.1,0.2,0.1,0.2,0.2c0.7,0.6,1.5,1.1,2.3,1.7
			c0.2,0.1,0.4,0.2,0.5,0.4c0.8,0.6,1.7,1.2,2.6,1.7c0.2,0.1,0.3,0.2,0.5,0.3c0.8,0.5,1.7,1,2.6,1.5c0.2,0.1,0.3,0.2,0.5,0.3
			c1,0.5,2,1.1,3,1.6c0.2,0.1,0.5,0.2,0.7,0.4c1,0.5,2.1,1,3.2,1.5c0,0,0.1,0,0.1,0c1.1,0.5,2.2,1,3.4,1.5c0.3,0.1,0.5,0.2,0.8,0.3
			c1.2,0.5,2.3,1,3.5,1.5c0.2,0.1,0.3,0.1,0.5,0.2c1.1,0.4,2.2,0.9,3.4,1.3c0.2,0.1,0.5,0.2,0.7,0.3c1.2,0.5,2.5,0.9,3.8,1.3
			c0.3,0.1,0.5,0.2,0.8,0.3c1.2,0.4,2.4,0.8,3.6,1.2c0.2,0.1,0.4,0.1,0.5,0.2c1.3,0.4,2.7,0.8,4.1,1.2c0.3,0.1,0.6,0.2,0.9,0.3
			c1.4,0.4,2.8,0.8,4.3,1.2c0,0,0.1,0,0.1,0c1.4,0.4,2.9,0.7,4.3,1.1c0.3,0.1,0.7,0.2,1,0.2c1.5,0.4,3,0.7,4.5,1
			c0.2,0.1,0.5,0.1,0.7,0.2c1.4,0.3,2.7,0.6,4.1,0.9c0.3,0.1,0.6,0.1,0.9,0.2c1.5,0.3,3.1,0.6,4.6,0.9c0.3,0.1,0.7,0.1,1,0.2
			c1.5,0.3,3,0.6,4.5,0.8c0.2,0,0.3,0.1,0.5,0.1c1.6,0.3,3.2,0.6,4.9,0.8c0.4,0.1,0.8,0.1,1.1,0.2c1.6,0.3,3.3,0.5,5,0.8
			c0.1,0,0.3,0,0.4,0.1c1.6,0.2,3.1,0.4,4.7,0.7c0.4,0,0.7,0.1,1.1,0.1c1.7,0.2,3.3,0.4,5,0.6c0.3,0,0.6,0.1,0.9,0.1
			c1.5,0.2,3.1,0.4,4.6,0.5c0.3,0,0.6,0.1,0.9,0.1c1.7,0.2,3.4,0.4,5.2,0.5c0.4,0,0.8,0.1,1.1,0.1c1.7,0.2,3.4,0.3,5,0.4
			c0.1,0,0.2,0,0.3,0c1.8,0.1,3.5,0.3,5.3,0.4c0.4,0,0.8,0.1,1.2,0.1c1.8,0.1,3.5,0.2,5.3,0.3c0.2,0,0.4,0,0.7,0
			c1.6,0.1,3.2,0.2,4.9,0.3c0.4,0,0.7,0,1.1,0.1c1.8,0.1,3.5,0.2,5.3,0.2c0.4,0,0.7,0,1.1,0c1.6,0.1,3.2,0.1,4.8,0.1
			c0.3,0,0.5,0,0.8,0c1.8,0,3.5,0.1,5.3,0.1c0.4,0,0.8,0,1.2,0c1.8,0,3.6,0,5.4,0c2.2,0,4.3,0,6.4,0c0.7,0,1.4,0,2.1,0
			c1.4,0,2.9,0,4.3-0.1c0.8,0,1.6,0,2.4-0.1c1.3,0,2.6-0.1,3.9-0.1c0.9,0,1.7-0.1,2.6-0.1c1.2-0.1,2.5-0.1,3.7-0.2
			c0.9,0,1.7-0.1,2.6-0.1c1.2-0.1,2.4-0.1,3.7-0.2c0.9-0.1,1.7-0.1,2.6-0.2c1.2-0.1,2.5-0.2,3.7-0.3c0.8-0.1,1.6-0.1,2.4-0.2
			c1.3-0.1,2.7-0.2,4-0.3c0.7-0.1,1.3-0.1,2-0.2c1.9-0.2,3.8-0.4,5.7-0.6c0.1,0,0.1,0,0.2,0c2-0.2,3.9-0.4,5.8-0.6
			c0.7-0.1,1.3-0.2,2-0.2c1.3-0.2,2.5-0.3,3.8-0.5c0.8-0.1,1.5-0.2,2.2-0.3c1.1-0.2,2.3-0.3,3.4-0.5c0.8-0.1,1.5-0.2,2.3-0.3
			c1.1-0.2,2.2-0.3,3.2-0.5c0.8-0.1,1.6-0.2,2.3-0.4c1.1-0.2,2.1-0.4,3.2-0.5c0.8-0.1,1.5-0.3,2.2-0.4c1.1-0.2,2.1-0.4,3.2-0.6
			c0.7-0.1,1.4-0.3,2.1-0.4c1.1-0.2,2.3-0.4,3.4-0.7c0.6-0.1,1.2-0.2,1.8-0.4c1.6-0.3,3.1-0.7,4.7-1c0.1,0,0.2,0,0.3-0.1
			c1.6-0.4,3.3-0.8,4.9-1.2c0.5-0.1,1.1-0.3,1.6-0.4c1-0.3,2.1-0.5,3.1-0.8c0.6-0.2,1.3-0.3,1.9-0.5c0.9-0.3,1.8-0.5,2.7-0.8
			c0.6-0.2,1.3-0.4,1.9-0.6c0.9-0.3,1.7-0.5,2.6-0.8c0.6-0.2,1.3-0.4,1.9-0.6c0.8-0.3,1.7-0.5,2.5-0.8c0.6-0.2,1.2-0.4,1.8-0.6
			c0.8-0.3,1.6-0.6,2.4-0.9c0.6-0.2,1.1-0.4,1.7-0.6c0.9-0.3,1.7-0.6,2.5-1c0.5-0.2,0.9-0.4,1.4-0.5c1.1-0.4,2.2-0.9,3.3-1.4
			c0.2-0.1,0.3-0.1,0.5-0.2c1.2-0.5,2.4-1,3.5-1.6c0.4-0.2,0.8-0.4,1.2-0.6c0.7-0.4,1.5-0.7,2.2-1.1c0.4-0.2,0.9-0.5,1.3-0.7
			c0.6-0.3,1.3-0.7,1.9-1c0.4-0.2,0.9-0.5,1.3-0.7c0.6-0.3,1.2-0.7,1.7-1c0.4-0.3,0.8-0.5,1.3-0.8c0.2-0.2,0.5-0.3,0.7-0.5
			c0,0.1,0,0.2,0,0.2c0,0.3,0,0.6,0.1,0.9c0.1,0.8,0.1,1.7,0.2,2.5c0,0.4,0.1,0.8,0.1,1.2c0.1,0.7,0.1,1.5,0.2,2.2
			c0,0.4,0.1,0.8,0.1,1.2c0.1,0.8,0.2,1.5,0.3,2.2c0,0.3,0.1,0.6,0.1,0.9c0.1,1,0.3,2,0.5,3c0,0.1,0,0.2,0,0.3
			c0.1,0.9,0.3,1.8,0.5,2.7c0.1,0.3,0.1,0.6,0.2,0.9c0.1,0.6,0.2,1.3,0.4,1.9c0.1,0.3,0.1,0.7,0.2,1c0.1,0.6,0.2,1.2,0.4,1.7
			c0.1,0.3,0.1,0.6,0.2,0.9c0.1,0.6,0.3,1.3,0.4,1.9c0,0.2,0.1,0.4,0.1,0.6c0.2,0.8,0.4,1.5,0.6,2.2c0.1,0.2,0.1,0.4,0.2,0.6
			c0.1,0.5,0.3,1,0.4,1.5c0.1,0.3,0.1,0.5,0.2,0.7c0.1,0.4,0.2,0.8,0.3,1.2c0.1,0.2,0.1,0.5,0.2,0.7c0.1,0.4,0.2,0.8,0.3,1.1
			c0.1,0.2,0.1,0.3,0.2,0.5c0.2,0.5,0.3,1,0.4,1.4l-82.3,76.7c-22.9,3.7-48.6,5.6-74.5,5.6c-92.9,0-157.7-23.5-157.7-44.6V542z"/>
		<path fill="#541900" d="M1369.4,547.3c4.1,0,8.2-1.2,12.1-3.7c8.4-5.3,12-13.3,9.6-21.5c-2.6-8.8-11.6-15.5-20.9-15.5
			c-3,0-5.9,0.7-8.5,1.9c-11.4,5.5-13.7,15.2-12.1,22.5C1351.7,540.5,1360,547.3,1369.4,547.3z"/>
	</g>
	<g>
		<path fill="#5EC2BA" d="M956,1128.8c-6.8,0-12.3,5.5-12.3,12.3c0,6.8,5.5,12.3,12.3,12.3s12.3-5.5,12.3-12.3
			C968.3,1134.3,962.8,1128.8,956,1128.8z"/>
		<path fill="#5EC2BA" d="M1024.6,1128.8c-6.8,0-12.3,5.5-12.3,12.3c0,6.8,5.5,12.3,12.3,12.3c6.8,0,12.3-5.5,12.3-12.3
			C1036.9,1134.3,1031.4,1128.8,1024.6,1128.8z"/>
		<path fill="#EE626A" d="M1114.5,1242.1c-1.8,0.7-12,7-31.2,67.1c-7.5,23.5-13.7,46.6-16.6,57.6h203.5
			c-15.5-58.4-34.8-119.7-41.6-125.3C1218.8,1235.2,1136.3,1234.2,1114.5,1242.1z"/>
		<path fill="#EE626A" d="M1246.6,1405c-11.5,0-21.1,4.3-27.8,12.4c-6.1,7.4-9.4,17.4-9.4,28.2c0,19.6,11.6,40.7,37.2,40.7
			c11.5,0,21.1-4.3,27.8-12.4c6.1-7.4,9.4-17.4,9.4-28.2C1283.8,1426.1,1272.2,1405,1246.6,1405z"/>
		<path fill="#EE626A" d="M1104.9,1405c-11.5,0-21.1,4.3-27.8,12.4c-6.1,7.4-9.4,17.4-9.4,28.2c0,19.6,11.6,40.7,37.2,40.7
			c11.5,0,21.1-4.3,27.8-12.4c6.1-7.4,9.4-17.4,9.4-28.2C1142.1,1426.1,1130.4,1405,1104.9,1405z"/>
		<path fill="#EE626A" d="M1438.5,1098.9c-10.8-1.5-72.7-3-172.6-3c-195.8,0-347.8,5.2-367.3,12.6c-0.1,8,0,34.8,0.3,72.3h545.4
			C1443.2,1132.6,1441,1105.7,1438.5,1098.9z M956,1164.1c-12.7,0-23-10.3-23-23c0-12.7,10.3-23,23-23s23,10.3,23,23
			C979,1153.8,968.7,1164.1,956,1164.1z M1024.6,1164.1c-12.7,0-23-10.3-23-23c0-12.7,10.3-23,23-23c12.7,0,23,10.3,23,23
			C1047.6,1153.8,1037.3,1164.1,1024.6,1164.1z M1093.2,1164.1c-12.7,0-23-10.3-23-23c0-12.7,10.3-23,23-23c12.7,0,23,10.3,23,23
			C1116.2,1153.8,1105.9,1164.1,1093.2,1164.1z"/>
		<path fill="#5EC2BA" d="M1093.2,1128.8c-6.8,0-12.3,5.5-12.3,12.3c0,6.8,5.5,12.3,12.3,12.3s12.3-5.5,12.3-12.3
			C1105.5,1134.3,1100,1128.8,1093.2,1128.8z"/>
		<path fill="#5EC2BA" d="M899.1,1191.5c0.4,39.8,0.9,89.6,1.7,141.4c2.1,146.9,4,212.3,5.2,226.7c24.6,2.9,188,6.7,335.7,6.7
			c156.9,0,189.1-4.1,195.6-5.9c2.9-14.4,6.8-108.7,7.9-229.8c0.5-57.1,0.3-103.3-0.5-139H899.1z M1282.7,1480.7
			c-8.8,10.7-21.3,16.3-36.1,16.3c-30,0-46.4-23.5-47.8-47.9c-20.9-8.9-39.4-2.9-46.1,0c-0.7,12-4.7,23.1-11.7,31.6
			c-8.8,10.7-21.3,16.3-36.1,16.3c-31.5,0-48-25.9-48-51.4c0-13.3,4.2-25.7,11.9-35.1c8.8-10.7,21.3-16.3,36.1-16.3
			c28.2,0,44.4,20.8,47.4,43.5c9.5-3.3,27-7.1,46.9,0c1.3-10.3,5.2-19.8,11.3-27.2c8.8-10.7,21.3-16.3,36.1-16.3
			c31.5,0,48,25.9,48,51.4C1294.6,1458.9,1290.3,1471.4,1282.7,1480.7z M1351.6,1377.6h-74.4c0,0,0,0,0,0c0,0,0,0,0,0h-280
			c-3,0-5.4-2.4-5.4-5.4s2.4-5.4,5.4-5.4h58.5c2.5-9.7,9.2-35.1,17.4-60.9c19.6-61.1,31-71.4,37.8-73.9
			c21.3-7.7,108.9-8.9,123.7,0.5c3,1.9,9.3,6,29.6,73.5c7.7,25.8,14.6,51.2,17.2,60.8h70.3c3,0,5.4,2.4,5.4,5.4
			S1354.6,1377.6,1351.6,1377.6z"/>
		<path fill="#541900" d="M1455.2,1183.1c-1-42-3-77.9-6.7-88.3c-0.7-2-2-4.7-4.9-5.8c-9.9-3.7-149.7-3.9-177.6-3.9
			c-90.5,0-180.3,1.3-246.2,3.4c-38.9,1.3-69.5,2.9-90.8,4.8c-36.3,3.2-40.5,6.3-41,12.1c-0.3,3.5-0.1,35.5,0.3,80.7c0,0,0,0,0,0
			c0,0,0,0,0,0c0.4,42.9,1,97.8,1.8,151.6c3.2,224.1,5.3,227.2,6.7,229.3c1.8,2.7,2.4,3.5,36.9,5c19.7,0.9,47.8,1.7,81.2,2.5
			c70.2,1.6,155,2.5,226.8,2.5c0,0,0,0,0,0c57.1,0,105.1-0.6,138.8-1.7c62.2-2.1,64-5.2,65.9-8.6c7.1-12.4,9.4-225.2,9.4-227.4
			c0.3-28.6,0.8-94-0.5-150.4c0.5-0.8,0.8-1.8,0.8-2.8C1456.1,1185,1455.8,1184,1455.2,1183.1z M898.6,1108.5
			c19.6-7.3,171.5-12.6,367.3-12.6c99.9,0,161.8,1.5,172.6,3c2.4,6.8,4.6,33.7,5.9,81.9H899C898.6,1143.2,898.5,1116.4,898.6,1108.5
			z M1445.1,1330.6c-1.1,121.1-5,215.4-7.9,229.8c-6.5,1.8-38.7,5.9-195.6,5.9c-147.7,0-311.1-3.8-335.7-6.7
			c-1.2-14.4-3.1-79.8-5.2-226.7c-0.7-51.8-1.3-101.7-1.7-141.4h545.6C1445.4,1227.3,1445.6,1273.5,1445.1,1330.6z"/>
		<path fill="#541900" d="M1351.6,1366.8h-70.3c-2.6-9.6-9.4-35-17.2-60.8c-20.3-67.5-26.6-71.5-29.6-73.5
			c-14.8-9.4-102.4-8.3-123.7-0.5c-6.8,2.5-18.2,12.9-37.8,73.9c-8.3,25.8-15,51.2-17.4,60.9h-58.5c-3,0-5.4,2.4-5.4,5.4
			s2.4,5.4,5.4,5.4h280c0,0,0,0,0,0c0,0,0,0,0,0h74.4c3,0,5.4-2.4,5.4-5.4S1354.6,1366.8,1351.6,1366.8z M1066.7,1366.8
			c2.8-11,9-34.2,16.6-57.6c19.3-60.1,29.4-66.4,31.2-67.1c21.7-7.9,104.2-6.9,114.1-0.6c6.8,5.6,26.1,66.9,41.6,125.3H1066.7z"/>
		<path fill="#541900" d="M1246.6,1394.2c-14.8,0-27.3,5.7-36.1,16.3c-6.1,7.4-10,16.9-11.3,27.2c-19.9-7.2-37.4-3.4-46.9,0
			c-3-22.7-19.2-43.5-47.4-43.5c-14.8,0-27.3,5.7-36.1,16.3c-7.7,9.3-11.9,21.8-11.9,35.1c0,25.5,16.5,51.4,48,51.4
			c14.8,0,27.3-5.7,36.1-16.3c7-8.5,11.1-19.6,11.7-31.6c6.7-2.8,25.2-8.8,46.1,0c1.4,24.3,17.8,47.9,47.8,47.9
			c14.8,0,27.3-5.7,36.1-16.3c7.7-9.3,11.9-21.8,11.9-35.1C1294.6,1420.1,1278.1,1394.2,1246.6,1394.2z M1132.7,1473.9
			c-6.7,8.1-16.3,12.4-27.8,12.4c-25.6,0-37.2-21.1-37.2-40.7c0-10.8,3.3-20.8,9.4-28.2c6.7-8.1,16.3-12.4,27.8-12.4
			c25.6,0,37.2,21.1,37.2,40.7C1142.1,1456.4,1138.7,1466.5,1132.7,1473.9z M1274.4,1473.9c-6.7,8.1-16.3,12.4-27.8,12.4
			c-25.6,0-37.2-21.1-37.2-40.7c0-10.8,3.3-20.8,9.4-28.2c6.7-8.1,16.3-12.4,27.8-12.4c25.6,0,37.2,21.1,37.2,40.7
			C1283.8,1456.4,1280.5,1466.5,1274.4,1473.9z"/>
		<path fill="#541900" d="M956,1118.1c-12.7,0-23,10.3-23,23c0,12.7,10.3,23,23,23s23-10.3,23-23
			C979,1128.4,968.7,1118.1,956,1118.1z M956,1153.4c-6.8,0-12.3-5.5-12.3-12.3c0-6.8,5.5-12.3,12.3-12.3s12.3,5.5,12.3,12.3
			C968.3,1147.9,962.8,1153.4,956,1153.4z"/>
		<path fill="#541900" d="M1024.6,1118.1c-12.7,0-23,10.3-23,23c0,12.7,10.3,23,23,23c12.7,0,23-10.3,23-23
			C1047.6,1128.4,1037.3,1118.1,1024.6,1118.1z M1024.6,1153.4c-6.8,0-12.3-5.5-12.3-12.3c0-6.8,5.5-12.3,12.3-12.3
			c6.8,0,12.3,5.5,12.3,12.3C1036.9,1147.9,1031.4,1153.4,1024.6,1153.4z"/>
		<path fill="#541900" d="M1093.2,1118.1c-12.7,0-23,10.3-23,23c0,12.7,10.3,23,23,23c12.7,0,23-10.3,23-23
			C1116.2,1128.4,1105.9,1118.1,1093.2,1118.1z M1093.2,1153.4c-6.8,0-12.3-5.5-12.3-12.3c0-6.8,5.5-12.3,12.3-12.3
			s12.3,5.5,12.3,12.3C1105.5,1147.9,1100,1153.4,1093.2,1153.4z"/>
	</g>
	<g>
		<path fill="#EE626A" d="M2146.9,352.9c-1.5-40.8-3.6-65.8-5.6-72.4c-18.7-3.4-163.9-6.5-307.1-6.5c-143.8,0-205.9,3.1-216.8,5.8
			c-1.5,6.2-2.8,28.8-3.6,73C1665.4,353.2,2038.9,355.4,2146.9,352.9z M1679.1,332.1c-3,2.9-8.5,6.4-17.5,6.4
			c-9,0-14.5-3.5-17.5-6.4c-3.9-3.9-6.1-9.1-6.1-14.7c0-10.6,8.3-21.9,23.5-21.9c15.3,0,23.5,11.3,23.5,21.9
			C1685.2,323,1683,328.3,1679.1,332.1z M1750.2,332.1c-3,2.9-8.5,6.4-17.5,6.4c-9,0-14.5-3.5-17.5-6.4c-3.9-3.9-6.1-9.1-6.1-14.7
			c0-10.6,8.3-21.9,23.5-21.9c15.3,0,23.5,11.3,23.5,21.9C1756.3,323,1754.2,328.3,1750.2,332.1z M1821.4,332.1
			c-3,2.9-8.5,6.4-17.5,6.4c-9,0-14.5-3.5-17.5-6.4c-3.9-3.9-6.1-9.1-6.1-14.7c0-10.6,8.3-21.9,23.5-21.9
			c15.3,0,23.5,11.3,23.5,21.9C1827.5,323,1825.3,328.3,1821.4,332.1z"/>
		<path fill="#5EC2BA" d="M1661.6,306.2c-8.8,0-12.8,5.8-12.8,11.2c0,2.7,1,5.2,2.9,7c2.2,2.2,5.7,3.4,9.9,3.4
			c4.3,0,7.7-1.2,9.9-3.4c1.9-1.8,2.9-4.3,2.9-7C1674.4,312,1670.4,306.2,1661.6,306.2z"/>
		<path fill="#5EC2BA" d="M1941.4,652c-1,20.7-5.5,38.7-13.2,52.2c-10.5,18.3-26.6,28-46.6,28c-19.4,0-34.9-9.2-44.7-26.5
			c-7.9-13.9-12.2-33.2-12.4-55.8c-17.3,12.8-45.5,34.6-51.2,43.2c-2.9,4.4-3.5,27.4-2.7,56.6c70.6-0.1,153.7-0.8,223.6-1.5
			c0.5-25.4,0-47.6-2.7-54.6C1986.8,681.4,1958.6,662.4,1941.4,652z"/>
		<path fill="#5EC2BA" d="M1732.8,306.2c-8.8,0-12.8,5.8-12.8,11.2c0,2.7,1,5.2,2.9,7c2.2,2.2,5.7,3.4,9.9,3.4
			c4.3,0,7.7-1.2,9.9-3.4c1.9-1.8,2.9-4.3,2.9-7C1745.6,312,1741.6,306.2,1732.8,306.2z"/>
		<path fill="#5EC2BA" d="M1803.9,306.2c-8.8,0-12.8,5.8-12.8,11.2c0,2.7,1,5.2,2.9,7c2.2,2.2,5.7,3.4,9.9,3.4
			c4.3,0,7.7-1.2,9.9-3.4c1.9-1.8,2.9-4.3,2.9-7C1816.7,312,1812.7,306.2,1803.9,306.2z"/>
		<path fill="#5EC2BA" d="M1824.8,636.3c0.3-5.7,0.9-11.4,1.6-17.1c-45.2,15.1-93.1,34.6-96.7,42c-3.6,9-2.2,55.6-0.2,88.4
			c6.3,0,12.8,0,19.8,0c3.4,0,6.9,0,10.5,0c-0.8-28.1-0.2-55.4,4.6-62.6C1772.8,674.5,1814.4,643.9,1824.8,636.3z"/>
		<path fill="#5EC2BA" d="M1963.3,364.8c-144.9,0-316.2-1-349.7-1.3c-0.5,36.9-0.6,87.1-0.1,153.1c0.8,107.1,3.1,211.2,4.5,230.9
			c7.4,0.9,30.9,1.9,100.8,2.1c-1.4-23.7-4.1-79.6,1-92.4c1.4-3.4,4.5-11.4,59.4-32.4c20.8-8,41.4-14.9,49.1-17.5
			c0.4-2.2,0.8-4.3,1.3-6.4c-19.1-10.8-78.6-44.8-85.8-55.4c-7.7-11.4-7.1-72.2-6.8-90.6c0.1-3,2.5-5.3,5.5-5.3
			c3,0.1,5.3,2.5,5.3,5.5c-0.7,36,1,78.5,5,84.4c4.3,6.4,47.1,32.2,79.4,50.5c1.4-5.3,3-10.5,4.7-15.5c-11.5-10.9-50-48.2-56.9-64.6
			c-7.6-18.3-1.2-105.7-0.4-115.6c0.2-3,2.8-5.2,5.8-4.9c3,0.2,5.2,2.8,4.9,5.8c-2.9,37.9-5.4,98.6-0.4,110.6
			c5,12,34.7,42,51.2,57.9c5.8-13.4,12.9-24.4,20.8-31.3c-5.5-1.9-10.2-4.8-14-8.7c-6.5-6.7-9.9-15.9-9.9-26.8
			c0-25.4,19-56.1,42.5-56.1c26.5,0,44.9,28.3,44.9,53.6c0,11.4-3.7,21.3-10.7,28.4c-3.7,3.9-8.3,6.8-13.6,8.9
			c7.4,5.3,14.2,13.5,20.2,24.4c11.7-12.7,39.4-43.3,47.2-55.5c6.8-10.6,3.1-70.2-0.8-105.2c-0.3-2.9,1.8-5.6,4.7-5.9
			c2.9-0.3,5.6,1.8,5.9,4.7c1.8,15.8,9.9,95.3-0.8,112.2c-9.1,14.3-41.8,50-51.2,60.1c2.8,6.4,5.2,13.2,7.3,20.3
			c30.9-17.4,75.9-46.1,81.4-59c6.7-15.7,2-63.7-0.4-80.9c-0.4-2.9,1.6-5.6,4.6-6.1c2.9-0.4,5.7,1.6,6.1,4.6
			c0.9,6.6,8.8,65.3-0.4,86.6c-8.5,19.8-71.2,55.9-88.5,65.5c0.4,1.8,0.8,3.6,1.2,5.4c7.9,2.8,30.5,11.2,53.1,20.9
			c52.1,22.5,60,33.4,61,40.3c2.3,14.9,1.2,61.1,0.5,83.2c26.4-0.3,48.8-0.6,64.7-0.8c11.9-0.1,20.4-0.2,24.8-0.3
			c3.9-15.2,7.7-98.5,7.6-232.6c0-61.2-0.9-111.8-2.1-150.2C2109.8,364.5,2040.3,364.8,1963.3,364.8z"/>
		<path fill="#5EC2BA" d="M1986.4,633.9c-18.2-7.9-36.5-14.8-46.8-18.6c1.1,8.1,1.8,16.2,1.9,24.3c11.8,6.9,52.8,31.6,59.9,50
			c3.4,9,4,33.4,3.5,58.4c12.7-0.1,24.9-0.3,36.5-0.4c0.7-21.6,1.8-67.7-0.3-81.7C2041.1,665.6,2039.1,656.7,1986.4,633.9z"/>
		<path fill="#EE626A" d="M1907,515.5c6.3-6.5,7.6-15,7.6-21c0-19.8-14.9-42.9-34.2-42.9c-15.2,0-31.8,23.7-31.8,45.4
			c0,5.6,1.2,13.5,6.9,19.3c5.4,5.5,13.7,8.3,24.9,8.3C1892.2,524.6,1901.1,521.6,1907,515.5z"/>
		<path fill="#EE626A" d="M1846.3,700.4c7.9,14,19.8,21,35.4,21c16.2,0,28.7-7.6,37.3-22.6c7.8-13.7,12-32.9,12-55.5
			c0-50-22-108-50.4-108c-21.5,0-45.2,58.9-45.2,112.5C1835.2,669.5,1839.1,687.7,1846.3,700.4z"/>
		<path fill="#541900" d="M2157.4,346.3c-2.8-71.2-6.4-73.2-9.9-75.1c-2.1-1.2-6.5-3.6-107-5.8c-60.3-1.3-135.4-2.1-206.3-2.1
			c-61.3,0-113.9,0.6-152,1.7c-69,2-71.2,4.9-73.3,7.7c-1.5,2-4.6,6.2-5.9,83.2c-0.3,0.7-0.5,1.4-0.5,2.2c0,0.8,0.2,1.5,0.4,2.2
			c-0.5,35.4-0.7,85.3-0.1,156c0.6,77.2,2.9,231.3,5.3,237.5c1.5,3.7,5,4.3,15.5,4.9c6.6,0.4,16.3,0.8,28.9,1
			c16.9,0.4,39.4,0.6,67,0.7c0.6,2.4,2.7,4.1,5.2,4.1c0.1,0,0.2,0,0.4,0c2.4-0.2,4.3-1.9,4.8-4.1c6.2,0,12.7,0,19.4,0c0,0,0,0,0,0
			c3.6,0,7.2,0,10.8,0c0.9,21.9,2.4,42.7,3.3,53.5c0.2,2.8,2.6,4.9,5.3,4.9c0.1,0,0.3,0,0.4,0c3-0.2,5.2-2.8,4.9-5.8
			c-1.4-17.6-2.5-35.8-3.2-52.6c70.4-0.1,153.2-0.8,222.9-1.5c-0.6,18.8-1.7,38.4-2.8,54.2c-0.2,3,2,5.5,5,5.7c0.1,0,0.3,0,0.4,0
			c2.8,0,5.1-2.2,5.3-5c0.4-5.1,2-29.2,2.8-55.1c12.7-0.1,24.9-0.3,36.4-0.4c0,0.3,0,0.5,0,0.6c-0.1,3,2.2,5.5,5.2,5.6
			c0.1,0,0.1,0,0.2,0c2.9,0,5.2-2.3,5.4-5.2c0-0.2,0-0.5,0-1.1c26.7-0.3,49.2-0.6,65.2-0.8c15.7-0.2,26.1-0.3,27.8-0.3
			c5.2,0,6.6-5.7,7.1-7.6c6-23.2,8.4-146.5,8.1-251.2C2159.9,439.9,2159,385.9,2157.4,346.3z M1617.4,279.8
			c10.9-2.8,72.9-5.8,216.8-5.8c143.3,0,288.5,3.1,307.1,6.5c2,6.7,4.1,31.6,5.6,72.4c-108,2.5-481.4,0.2-533.1-0.1
			C1614.5,308.6,1615.9,286.1,1617.4,279.8z M1764.4,687.1c-4.8,7.2-5.4,34.5-4.6,62.6c-3.5,0-7,0-10.5,0c-7,0-13.5,0-19.8,0
			c-2-32.8-3.4-79.4,0.2-88.4c3.6-7.4,51.5-26.9,96.7-42c-0.7,5.7-1.3,11.4-1.6,17.1C1814.4,643.9,1772.8,674.5,1764.4,687.1z
			 M1994.2,748.1c-69.9,0.7-153,1.4-223.6,1.5c-0.9-29.2-0.2-52.2,2.7-56.6c5.7-8.6,33.9-30.4,51.2-43.2
			c0.2,22.6,4.5,41.9,12.4,55.8c9.8,17.3,25.3,26.5,44.7,26.5c20,0,36.2-9.7,46.6-28c7.7-13.5,12.2-31.4,13.2-52.2
			c17.1,10.4,45.4,29.4,50,41.5C1994.2,700.6,1994.7,722.8,1994.2,748.1z M1880.5,535.4c28.4,0,50.4,58.1,50.4,108
			c0,22.6-4.1,41.7-12,55.5c-8.6,15-21.1,22.6-37.3,22.6c-15.5,0-27.4-7.1-35.4-21c-7.2-12.7-11-30.9-11-52.6
			C1835.2,594.2,1858.9,535.4,1880.5,535.4z M1855.6,516.4c-5.7-5.8-6.9-13.7-6.9-19.3c0-21.6,16.6-45.4,31.8-45.4
			c19.2,0,34.2,23.1,34.2,42.9c0,6-1.3,14.5-7.6,21c-5.9,6.1-14.8,9.1-26.5,9.1C1869.3,524.6,1860.9,521.9,1855.6,516.4z
			 M2041.5,747.6c-11.5,0.1-23.8,0.3-36.5,0.4c0.5-24.9,0-49.4-3.5-58.4c-7.1-18.4-48.1-43.2-59.9-50c-0.2-8.1-0.8-16.3-1.9-24.3
			c10.3,3.8,28.5,10.7,46.8,18.6c52.7,22.8,54.6,31.7,54.7,32.1C2043.3,679.9,2042.1,726.1,2041.5,747.6z M2141.7,746.5
			c-4.4,0-12.8,0.1-24.8,0.3c-16,0.2-38.3,0.5-64.7,0.8c0.7-22.1,1.8-68.3-0.5-83.2c-1.1-6.9-9-17.8-61-40.3
			c-22.6-9.8-45.2-18.1-53.1-20.9c-0.4-1.8-0.8-3.6-1.2-5.4c17.2-9.6,80-45.7,88.5-65.5c9.1-21.3,1.3-80,0.4-86.6
			c-0.4-2.9-3.1-5-6.1-4.6c-2.9,0.4-5,3.1-4.6,6.1c2.4,17.2,7.1,65.1,0.4,80.9c-5.5,12.9-50.5,41.6-81.4,59
			c-2.1-7.1-4.5-13.9-7.3-20.3c9.3-10.1,42.1-45.8,51.2-60.1c10.8-16.9,2.6-96.4,0.8-112.2c-0.3-2.9-3-5.1-5.9-4.7
			c-2.9,0.3-5.1,3-4.7,5.9c3.9,35,7.6,94.6,0.8,105.2c-7.8,12.2-35.5,42.8-47.2,55.5c-6-10.8-12.8-19-20.2-24.4
			c5.3-2.1,9.8-5,13.6-8.9c7-7.2,10.7-17,10.7-28.4c0-25.4-18.4-53.6-44.9-53.6c-23.6,0-42.5,30.7-42.5,56.1
			c0,10.9,3.4,20.2,9.9,26.8c3.8,3.9,8.5,6.8,14,8.7c-7.9,6.9-15,17.9-20.8,31.3c-16.5-15.9-46.2-45.9-51.2-57.9
			c-5-12.1-2.5-72.8,0.4-110.6c0.2-3-2-5.5-4.9-5.8c-3-0.2-5.5,2-5.8,4.9c-0.8,9.9-7.2,97.3,0.4,115.6c6.8,16.4,45.4,53.7,56.9,64.6
			c-1.7,5-3.3,10.1-4.7,15.5c-32.4-18.3-75.1-44.1-79.4-50.5c-3.9-5.9-5.7-48.4-5-84.4c0.1-3-2.3-5.4-5.3-5.5
			c-3-0.1-5.4,2.3-5.5,5.3c-0.4,18.4-0.9,79.2,6.8,90.6c7.1,10.6,66.6,44.6,85.8,55.4c-0.5,2.1-0.9,4.3-1.3,6.4
			c-7.7,2.5-28.3,9.5-49.1,17.5c-54.9,21.1-58.1,29-59.4,32.4c-5.1,12.8-2.4,68.7-1,92.4c-69.8-0.2-93.4-1.3-100.8-2.1
			c-1.4-19.7-3.6-123.7-4.5-230.9c-0.5-66-0.4-116.2,0.1-153.1c33.5,0.2,204.8,1.3,349.7,1.3c77,0,146.4-0.3,183.9-1.2
			c1.3,38.4,2.1,89,2.1,150.2C2149.4,648,2145.6,731.2,2141.7,746.5z"/>
		<path fill="#541900" d="M1661.6,295.5c-15.3,0-23.5,11.3-23.5,21.9c0,5.6,2.2,10.9,6.1,14.7c3,2.9,8.5,6.4,17.5,6.4
			c9,0,14.5-3.5,17.5-6.4c3.9-3.9,6.1-9.1,6.1-14.7C1685.2,306.8,1676.9,295.5,1661.6,295.5z M1671.5,324.4
			c-2.2,2.2-5.7,3.4-9.9,3.4c-4.3,0-7.7-1.2-9.9-3.4c-1.9-1.8-2.9-4.3-2.9-7c0-5.4,4-11.2,12.8-11.2c8.8,0,12.8,5.8,12.8,11.2
			C1674.4,320.1,1673.4,322.6,1671.5,324.4z"/>
		<path fill="#541900" d="M1732.8,295.5c-15.3,0-23.5,11.3-23.5,21.9c0,5.6,2.2,10.9,6.1,14.7c3,2.9,8.5,6.4,17.5,6.4
			c9,0,14.5-3.5,17.5-6.4c3.9-3.9,6.1-9.1,6.1-14.7C1756.3,306.8,1748.1,295.5,1732.8,295.5z M1742.7,324.4
			c-2.2,2.2-5.7,3.4-9.9,3.4c-4.3,0-7.7-1.2-9.9-3.4c-1.9-1.8-2.9-4.3-2.9-7c0-5.4,4-11.2,12.8-11.2c8.8,0,12.8,5.8,12.8,11.2
			C1745.6,320.1,1744.6,322.6,1742.7,324.4z"/>
		<path fill="#541900" d="M1803.9,295.5c-15.3,0-23.5,11.3-23.5,21.9c0,5.6,2.2,10.9,6.1,14.7c3,2.9,8.5,6.4,17.5,6.4
			c9,0,14.5-3.5,17.5-6.4c3.9-3.9,6.1-9.1,6.1-14.7C1827.5,306.8,1819.2,295.5,1803.9,295.5z M1813.9,324.4
			c-2.2,2.2-5.7,3.4-9.9,3.4c-4.3,0-7.7-1.2-9.9-3.4c-1.9-1.8-2.9-4.3-2.9-7c0-5.4,4-11.2,12.8-11.2c8.8,0,12.8,5.8,12.8,11.2
			C1816.7,320.1,1815.7,322.6,1813.9,324.4z"/>
	</g>
	<g>
		<path fill="#EE626A" d="M2023,1200.3c-1.2-0.8-2.1-2-2.4-3.4c-2.2-9.8-4.9-20.8-7.1-28.7c-2.4,7.9-5.5,18.9-7.9,28.8
			c-0.7,2.9-3.6,4.6-6.5,3.9c-4.9-1.2-15-3.5-23.8-5.2c2.2,1.5,4.3,2.9,6.1,4.1c3.9,2.6,7.5,5,10.2,7c3.5,2.5,7.9,5.7,5.7,10.4
			c-0.3,0.7-0.9,1.6-2.9,4.8c-4.7,7.5-8.3,13.5-10.7,17.9c5.3-2.8,11.7-6.6,15.6-8.9c9.9-5.8,11.1-6.4,13.1-6.4c2.3,0,3.8,1,12,6.5
			c3,2,7.8,5.2,12.1,7.9c-0.9-1.8-1.9-3.6-2.7-5.1c-6.1-11.4-8.4-16.1-7.6-20.1c0.8-3.7,4.7-7.2,17.4-16.6
			c-5.9,1.2-12.1,2.6-16.8,3.7C2025.7,1201.4,2024.2,1201.1,2023,1200.3z"/>
		<path fill="#5EC2BA" d="M1885.3,1075.9c-163.6-1.4-245.5,4.1-254.3,10.3c-10.3,14.7-14.3,177.6,0.3,247c3.6,17.2,7,20.5,7.7,21.1
			h132.6c23.7-34,60.1-57.6,106.5-57.6c46.5,0,82.8,23.6,106.5,57.6c67.2,0.2,141.6-1.5,153.7-5.2c2.5-9.8,5.4-62.5,6-130.6
			c0.6-80.4-2.4-124-5.6-131.6C2125.7,1082.4,2022.9,1077.1,1885.3,1075.9z M1787.6,1204.4c-4.8,3.5-12.5,9.2-15.1,11.9
			c0.9,2.7,4.1,8.6,6.2,12.6c6.1,11.3,8.5,16.4,7.7,20.3c-0.6,3-3.1,5-6.3,5c-4.4,0-11.4-4.2-26.2-14.1c-2.1-1.4-4.6-3-6.2-4.1
			c-1.9,1.1-5,2.8-7.5,4.3c-16.8,9.8-24.5,13.9-28.9,13.9c-1,0-1.9-0.2-2.7-0.5c-1.6-0.7-2.9-2.1-3.5-3.8
			c-1.3-4.1,0.6-9.6,15.5-33.6c0.1-0.2,0.2-0.4,0.3-0.5c-2.7-1.9-6.9-4.7-10.3-7c-18.2-12.1-23-15.5-21.4-20.9
			c0.9-3.1,3.5-4.6,7.9-4.6c7.5,0,25.4,3.9,34.4,6c10.1-39.4,12.7-39.9,16.2-40.5c0.3,0,0.6-0.1,0.9-0.1c4.8,0,6.8,2.9,12.4,24.8
			c1.5,5.8,2.9,11.7,3.8,15.7c8.7-2,25-5.5,30.4-5.5c1.1,0,2.6,0.1,4,0.9c1.6,1,2.7,2.7,2.7,4.6
			C1802.5,1193.3,1799.9,1195.4,1787.6,1204.4z M1919.9,1204.4c-4.8,3.5-12.5,9.2-15.1,11.9c0.9,2.7,4.1,8.6,6.2,12.6
			c6.1,11.3,8.5,16.4,7.7,20.3c-0.6,3-3.1,5-6.3,5c-4.4,0-11.4-4.2-26.2-14.1c-2.1-1.4-4.6-3-6.2-4.1c-1.9,1.1-5,2.8-7.5,4.3
			c-16.8,9.8-24.5,13.9-28.9,13.9c-1,0-1.9-0.2-2.7-0.5c-1.6-0.7-2.9-2.1-3.5-3.8c-1.3-4.1,0.6-9.6,15.5-33.6
			c0.1-0.2,0.2-0.4,0.3-0.5c-2.7-1.9-6.9-4.7-10.3-7c-18.2-12.1-23-15.5-21.4-20.9c0.9-3.1,3.6-4.6,7.9-4.6c7.5,0,25.4,3.9,34.4,6
			c10.1-39.4,12.7-39.9,16.2-40.5c0.3,0,0.6-0.1,0.9-0.1c4.8,0,6.8,2.9,12.4,24.8c1.5,5.8,2.9,11.7,3.8,15.7c8.7-2,25-5.5,30.4-5.5
			c1.1,0,2.6,0.1,4,0.9c1.6,1,2.7,2.7,2.7,4.6C1934.9,1193.3,1932.3,1195.4,1919.9,1204.4z M2052.3,1204.4
			c-4.8,3.5-12.5,9.2-15.1,11.9c0.9,2.7,4.1,8.6,6.2,12.6c6.1,11.3,8.5,16.4,7.7,20.3c-0.6,3-3.1,5-6.3,5c-4.4,0-11.4-4.2-26.2-14.1
			c-2.1-1.4-4.6-3-6.2-4.1c-1.9,1.1-5,2.8-7.5,4.3c-16.8,9.8-24.5,13.9-28.9,13.9c-1,0-1.9-0.2-2.7-0.5c-1.6-0.7-2.9-2.1-3.5-3.8
			c-1.3-4.1,0.6-9.6,15.5-33.6c0.1-0.2,0.2-0.4,0.3-0.5c-2.7-1.9-6.9-4.7-10.3-7c-18.2-12.1-23-15.5-21.4-20.9
			c0.9-3.1,3.6-4.6,7.9-4.6c7.5,0,25.4,3.9,34.4,6c10.1-39.4,12.7-39.9,16.2-40.5c0.3,0,0.6-0.1,0.9-0.1c4.8,0,6.8,2.9,12.4,24.8
			c1.5,5.8,2.9,11.7,3.8,15.7c8.7-2,25-5.5,30.4-5.5c1.1,0,2.6,0.1,4,0.9c1.6,1,2.6,2.7,2.7,4.6
			C2067.2,1193.3,2064.6,1195.4,2052.3,1204.4z"/>
		<path fill="#EE626A" d="M1890.6,1200.3c-1.2-0.8-2.1-2-2.4-3.4c-2.2-9.8-4.9-20.8-7.1-28.7c-2.4,7.9-5.5,18.9-7.9,28.8
			c-0.7,2.9-3.6,4.6-6.5,3.9c-4.9-1.2-15-3.5-23.8-5.2c2.2,1.5,4.3,2.9,6.1,4.1c3.9,2.6,7.5,5,10.2,7c3.5,2.5,7.9,5.7,5.7,10.4
			c-0.3,0.7-0.9,1.6-2.9,4.8c-4.7,7.5-8.3,13.5-10.7,17.9c5.3-2.8,11.7-6.6,15.6-8.9c9.9-5.8,11.1-6.4,13.1-6.4c2.3,0,3.8,1,12,6.5
			c3,2,7.8,5.2,12.1,7.9c-0.9-1.8-1.9-3.6-2.7-5.1c-6.1-11.4-8.4-16.1-7.6-20.1c0.8-3.7,4.7-7.2,17.4-16.6
			c-5.9,1.2-12.1,2.6-16.8,3.7C1893.3,1201.4,1891.8,1201.1,1890.6,1200.3z"/>
		<path fill="#EE626A" d="M1878.1,1307.4c-79.5,0-127.1,75.8-127.1,149.2c0,35.2,10.8,67.2,30.5,90.1c22.4,26.1,55.8,39.9,96.6,39.9
			c40.7,0,74.1-13.8,96.5-39.9c19.7-22.9,30.5-54.9,30.5-90.1C2005.2,1383.3,1957.6,1307.4,1878.1,1307.4z M1948.5,1403.7
			l-86.2,90.1c-1,1.1-2.4,1.7-3.9,1.7c-0.1,0-0.1,0-0.2,0c-1.5-0.1-3-0.8-3.9-2l-35.3-43.1c-1.9-2.3-1.5-5.7,0.8-7.6
			c2.3-1.9,5.7-1.5,7.6,0.8l31.4,38.4l82-85.7c2-2.1,5.4-2.2,7.6-0.2C1950.5,1398.1,1950.6,1401.5,1948.5,1403.7z"/>
		<path fill="#EE626A" d="M1758.2,1200.3c-1.2-0.8-2.1-2-2.4-3.4c-2.2-9.8-4.9-20.8-7.1-28.7c-2.4,7.9-5.5,18.9-7.9,28.8
			c-0.7,2.9-3.6,4.6-6.5,3.9c-4.9-1.2-15-3.5-23.8-5.2c2.2,1.5,4.3,2.9,6.1,4.1c3.9,2.6,7.5,5,10.2,7c3.5,2.5,7.9,5.7,5.7,10.4
			c-0.3,0.7-0.9,1.6-2.9,4.8c-4.7,7.5-8.3,13.5-10.7,17.9c5.3-2.8,11.7-6.6,15.6-8.9c9.9-5.8,11.1-6.4,13.1-6.4c2.3,0,3.8,1,12,6.5
			c3,2,7.8,5.2,12.1,7.9c-0.9-1.8-1.9-3.6-2.7-5.1c-6.1-11.4-8.4-16.1-7.6-20.1c0.8-3.7,4.7-7.2,17.4-16.6
			c-5.9,1.2-12.1,2.6-16.8,3.7C1760.9,1201.4,1759.4,1201.1,1758.2,1200.3z"/>
		<path fill="#541900" d="M1940.8,1396.3l-82,85.7l-31.4-38.4c-1.9-2.3-5.3-2.6-7.6-0.8c-2.3,1.9-2.6,5.3-0.8,7.6l35.3,43.1
			c1,1.2,2.4,1.9,3.9,2c0.1,0,0.1,0,0.2,0c1.5,0,2.9-0.6,3.9-1.7l86.2-90.1c2-2.1,2-5.5-0.2-7.6
			C1946.2,1394,1942.8,1394.1,1940.8,1396.3z"/>
		<path fill="#541900" d="M2146.3,1078.9c-2-2-4.9-4.9-60.2-8.1c-32.4-1.9-77-3.5-125.8-4.5c-86-1.8-203.6-2.3-275.6,2
			c-51.6,3.1-59,7.3-61.9,11c-12.3,15.7-11.7,118.7-11.6,130.3c0.5,55.8,5,123.3,15.8,145.6c3.1,6.4,7.1,9.7,11.8,9.7h126
			c-15.9,27.2-24.4,59.6-24.4,91.5c0,37.7,11.8,72.2,33.1,97.1c24.5,28.5,60.7,43.6,104.7,43.6c44,0,80.2-15.1,104.7-43.6
			c21.4-24.9,33.1-59.3,33.1-97.1c0-31.9-8.5-64.3-24.4-91.5c13.9,0,40.9-0.1,68.1-0.6c80.6-1.6,84.3-5.2,86.7-7.7
			c1.8-1.8,4.1-4.1,6.3-47.2c1.3-24.7,2.1-57.6,2.4-90c0.3-34.9-0.1-67.2-1.2-90.9C2151.9,1084.5,2148.4,1081,2146.3,1078.9z
			 M2005.2,1456.6c0,35.2-10.8,67.2-30.5,90.1c-22.4,26.1-55.8,39.9-96.5,39.9c-40.7,0-74.1-13.8-96.6-39.9
			c-19.7-22.9-30.5-54.9-30.5-90.1c0-73.3,47.5-149.2,127.1-149.2S2005.2,1383.3,2005.2,1456.6z M2144.3,1218.4
			c-0.5,68.2-3.4,120.8-6,130.6c-12.1,3.7-86.5,5.5-153.7,5.2c-23.7-34-60.1-57.6-106.5-57.6c-46.5,0-82.8,23.6-106.5,57.6H1639
			c-0.7-0.5-4.1-3.9-7.7-21.1c-14.6-69.4-10.6-232.3-0.3-247c8.9-6.1,90.7-11.7,254.3-10.3c137.6,1.2,240.4,6.5,253.4,10.8
			C2141.9,1094.5,2144.9,1138,2144.3,1218.4z"/>
		<path fill="#541900" d="M1799.6,1184.8c-1.4-0.8-2.9-0.9-4-0.9c-5.4,0-21.8,3.5-30.4,5.5c-0.9-4-2.3-9.9-3.8-15.7
			c-5.6-21.9-7.6-24.8-12.4-24.8c-0.3,0-0.6,0-0.9,0.1c-3.6,0.6-6.2,1-16.2,40.5c-9.1-2.1-27-6-34.4-6c-4.4,0-7.1,1.6-7.9,4.6
			c-1.6,5.4,3.2,8.8,21.4,20.9c3.4,2.2,7.6,5,10.3,7c-0.1,0.2-0.2,0.4-0.3,0.5c-15,23.9-16.8,29.5-15.5,33.6
			c0.5,1.7,1.8,3.1,3.5,3.8c0.8,0.3,1.7,0.5,2.7,0.5c4.4,0,12.1-4.1,28.9-13.9c2.6-1.5,5.6-3.3,7.5-4.3c1.6,1,4.1,2.7,6.2,4.1
			c14.9,9.9,21.8,14.1,26.2,14.1c3.2,0,5.7-2,6.3-5c0.8-4-1.6-9-7.7-20.3c-2.2-4.1-5.3-9.9-6.2-12.6c2.5-2.7,10.3-8.3,15.1-11.9
			c12.3-9,14.9-11.1,14.7-15C1802.2,1187.5,1801.2,1185.8,1799.6,1184.8z M1761.7,1213.9c-0.8,3.9,1.4,8.6,7.6,20.1
			c0.8,1.5,1.8,3.3,2.7,5.1c-4.3-2.6-9.1-5.9-12.1-7.9c-8.2-5.5-9.7-6.5-12-6.5c-2.1,0-3.2,0.6-13.1,6.4c-3.9,2.3-10.4,6.1-15.6,8.9
			c2.4-4.4,5.9-10.3,10.7-17.9c2-3.2,2.6-4.1,2.9-4.8c2.2-4.7-2.2-7.8-5.7-10.4c-2.7-2-6.4-4.4-10.2-7c-1.8-1.2-4-2.6-6.1-4.1
			c8.8,1.6,19,4,23.8,5.2c2.9,0.7,5.8-1.1,6.5-3.9c2.5-9.9,5.5-20.9,7.9-28.8c2.2,7.9,4.9,18.8,7.1,28.7c0.3,1.4,1.2,2.6,2.4,3.4
			c1.2,0.8,2.7,1,4.1,0.7c4.7-1.1,10.9-2.5,16.8-3.7C1766.4,1206.7,1762.4,1210.2,1761.7,1213.9z"/>
		<path fill="#541900" d="M1931.9,1184.8c-1.4-0.8-2.9-0.9-4-0.9c-5.4,0-21.8,3.5-30.4,5.5c-0.9-4-2.3-9.9-3.8-15.7
			c-5.6-21.9-7.6-24.8-12.4-24.8c-0.3,0-0.6,0-0.9,0.1c-3.6,0.6-6.2,1-16.2,40.5c-9.1-2.1-27-6-34.4-6c-4.4,0-7.1,1.6-7.9,4.6
			c-1.6,5.4,3.2,8.8,21.4,20.9c3.4,2.2,7.6,5,10.3,7c-0.1,0.2-0.2,0.4-0.3,0.5c-15,23.9-16.8,29.5-15.5,33.6
			c0.5,1.7,1.8,3.1,3.5,3.8c0.8,0.3,1.7,0.5,2.7,0.5c4.4,0,12.1-4.1,28.9-13.9c2.6-1.5,5.6-3.3,7.5-4.3c1.6,1,4.1,2.7,6.2,4.1
			c14.9,9.9,21.8,14.1,26.2,14.1c3.2,0,5.7-2,6.3-5c0.8-4-1.6-9-7.7-20.3c-2.2-4.1-5.3-9.9-6.2-12.6c2.5-2.7,10.3-8.3,15.1-11.9
			c12.3-9,14.9-11.1,14.7-15C1934.6,1187.5,1933.6,1185.8,1931.9,1184.8z M1894.1,1213.9c-0.8,3.9,1.4,8.6,7.6,20.1
			c0.8,1.5,1.8,3.3,2.7,5.1c-4.3-2.6-9.1-5.8-12.1-7.9c-8.2-5.5-9.7-6.5-12-6.5c-2.1,0-3.2,0.6-13.1,6.4c-3.9,2.3-10.4,6.1-15.6,8.9
			c2.4-4.4,5.9-10.3,10.7-17.9c2-3.2,2.6-4.1,2.9-4.8c2.2-4.7-2.2-7.8-5.7-10.4c-2.7-2-6.4-4.4-10.2-7c-1.8-1.2-4-2.6-6.1-4.1
			c8.8,1.6,19,4,23.8,5.2c2.9,0.7,5.8-1.1,6.5-3.9c2.5-9.9,5.5-20.9,7.9-28.8c2.2,7.9,4.9,18.8,7.1,28.7c0.3,1.4,1.2,2.6,2.4,3.4
			c1.2,0.8,2.7,1,4.1,0.7c4.7-1.1,10.9-2.5,16.8-3.7C1898.7,1206.7,1894.8,1210.2,1894.1,1213.9z"/>
		<path fill="#541900" d="M2064.3,1184.8c-1.4-0.8-2.9-0.9-4-0.9c-5.4,0-21.8,3.5-30.4,5.5c-0.9-4-2.3-9.9-3.8-15.7
			c-5.6-21.9-7.6-24.8-12.4-24.8c-0.3,0-0.6,0-0.9,0.1c-3.6,0.6-6.2,1-16.2,40.5c-9.1-2.1-27-6-34.4-6c-4.4,0-7.1,1.6-7.9,4.6
			c-1.6,5.4,3.2,8.8,21.4,20.9c3.4,2.2,7.6,5,10.3,7c-0.1,0.2-0.2,0.4-0.3,0.5c-15,23.9-16.8,29.5-15.5,33.6
			c0.5,1.7,1.8,3.1,3.5,3.8c0.8,0.3,1.7,0.5,2.7,0.5c4.4,0,12.1-4.1,28.9-13.9c2.6-1.5,5.6-3.3,7.5-4.3c1.6,1,4.1,2.7,6.2,4.1
			c14.9,9.9,21.8,14.1,26.2,14.1c3.2,0,5.7-2,6.3-5c0.8-4-1.6-9-7.7-20.3c-2.2-4.1-5.3-9.9-6.2-12.6c2.5-2.7,10.3-8.3,15.1-11.9
			c12.3-9,14.9-11.1,14.7-15C2067,1187.5,2066,1185.8,2064.3,1184.8z M2026.4,1213.9c-0.8,3.9,1.4,8.6,7.6,20.1
			c0.8,1.5,1.8,3.3,2.7,5.1c-4.3-2.6-9.1-5.8-12.1-7.9c-8.2-5.5-9.7-6.5-12-6.5c-2.1,0-3.2,0.6-13.1,6.4c-3.9,2.3-10.4,6.1-15.6,8.9
			c2.4-4.4,5.9-10.3,10.7-17.9c2-3.2,2.6-4.1,2.9-4.8c2.2-4.7-2.2-7.8-5.7-10.4c-2.7-2-6.4-4.4-10.2-7c-1.8-1.2-4-2.6-6.1-4.1
			c8.8,1.6,19,4,23.8,5.2c2.9,0.7,5.8-1.1,6.5-3.9c2.5-9.9,5.5-20.9,7.9-28.8c2.2,7.9,4.9,18.8,7.1,28.7c0.3,1.4,1.2,2.6,2.4,3.4
			c1.2,0.8,2.7,1,4.1,0.7c4.7-1.1,10.9-2.5,16.8-3.7C2031.1,1206.7,2027.2,1210.2,2026.4,1213.9z"/>
	</g>
</g>
</svg>
