<?xml version="1.0" encoding="utf-8"?>
<!-- Generator: Adobe Illustrator 18.0.0, SVG Export Plug-In . SVG Version: 6.00 Build 0)  -->
<!DOCTYPE svg PUBLIC "-//W3C//DTD SVG 1.1//EN" "http://www.w3.org/Graphics/SVG/1.1/DTD/svg11.dtd">
<svg version="1.1" xmlns="http://www.w3.org/2000/svg" xmlns:xlink="http://www.w3.org/1999/xlink" x="0px" y="0px" width="800px"
	 height="600px" viewBox="0 0 800 600" enable-background="new 0 0 800 600" xml:space="preserve">
<g id="Layer_1">
	<rect fill="#00A79D" width="800" height="600"/>
</g>
<g id="Layer_2">
	<g>
		<path fill="#FAC5C3" d="M670.7,507.2c0,0,30.5-76.3,22.9-134.3c-7.6-58-38.9-113.7-49.6-121.3c-10.7-7.6-3.8,27.5-3.8,27.5
			s-4.6-9.9-12.2-7.6c-7.6,2.3-1.6,34.9-1.6,34.9s-7.6-13.5-13.7-8.9c-6.1,4.6,0,53,0,53s-3.8-18.7-11.4-11.1
			c-7.6,7.6,9.9,54.2,0,89.3s-2,72.5-2,72.5L670.7,507.2z"/>
		<path fill="#FAC5C3" d="M126.4,507.2c0,0-30.5-76.3-22.9-134.3s38.9-113.7,49.6-121.3c10.7-7.6,3.8,27.5,3.8,27.5
			s4.6-9.9,12.2-7.6c7.6,2.3,1.6,34.9,1.6,34.9s7.6-13.5,13.7-8.9c6.1,4.6,0,53,0,53s3.8-18.7,11.4-11.1c7.6,7.6-9.9,54.2,0,89.3
			c9.9,35.1,2,72.5,2,72.5L126.4,507.2z"/>
		<path fill="#414042" d="M175.2,489.9c-13.1,0-23.7-10.6-23.7-23.7V111.9c0-13.1,10.6-23.7,23.7-23.7h449.6
			c13.1,0,23.7,10.6,23.7,23.7v354.3c0,13.1-10.6,23.7-23.7,23.7H175.2z"/>
		<rect x="175.2" y="111.9" fill="#FFFFFF" width="449.6" height="354.3"/>
		<path fill="#FDDCCF" d="M124.2,419.4c0.5-3.4,48.1-98.5,62.3-92.8c14.2,5.8-21.7,109-21.7,109l25.1,66.6l-63.5,5
			C126.4,507.2,119.6,451.9,124.2,419.4z"/>
		<path fill="#FDDCCF" d="M672.8,419.4c-0.5-3.4-48.1-98.5-62.3-92.8c-14.2,5.8,21.7,109,21.7,109l-25.1,66.6l63.5,5
			C670.7,507.2,677.4,451.9,672.8,419.4z"/>
		<polygon fill="#FDDCCF" points="126.4,507.2 137,600 223,600 197.8,501.1 		"/>
		<polygon fill="#FDDCCF" points="670,507.2 659.4,600 573.4,600 598.6,501.1 		"/>
		<g>
			<rect x="196.8" y="151.9" fill="#00AEEF" width="303.4" height="219"/>
			<g>
				<defs>
					<rect id="SVGID_9_" x="277.2" y="159.1" width="142.7" height="211.8"/>
				</defs>
				<clipPath id="SVGID_2_">
					<use xlink:href="#SVGID_9_"  overflow="visible"/>
				</clipPath>
				<g clip-path="url(#SVGID_2_)">
					<path fill="#FDDCCF" d="M338.5,254.4c0,0,2.9,33.9-8.6,39c-11.5,5.1-26.6,1.2-26.6,1.2l4.3,76h78.6l5.4-75.8
						c0,0-11.8,3.1-24.3-1.4c-12.4-4.5-8.8-39-8.8-39H338.5z"/>
					<path fill="#FAC5C3" d="M338.5,254.4c0,0,0.8,9.9-0.2,19.8c3.1,2.1,6.5,3.3,10.1,3.3c3.7,0,7.1-1,10.1-2.8
						c-1-10.1,0-20.3,0-20.3H338.5z"/>
					<polygon fill="#FAC5C3" points="340.3,338.4 348,356.3 356.6,333.9 348.4,350.1 					"/>
					<g>
						<g>
							<g>
								<path fill="#FAC5C3" d="M324.4,221.2c0,0-0.7-12.5-5.6-9.6c-4.9,2.9-0.4,19.2,7,22.2L324.4,221.2z"/>
								<path fill="#FAC5C3" d="M380.8,236.3c0,0,6.9-10.4,9.7-5.5c2.8,4.9-9.2,16.8-17.1,15.7L380.8,236.3z"/>
							</g>
							<path fill="#FDDCCF" d="M324.7,204.8c-4.5,16-2.6,59.3,17.1,64.6c22.7,6.1,43.4-33.4,47.2-47.4s3.3-36.6-22.8-43.6
								C340.1,171.4,328.8,190.3,324.7,204.8z"/>
							<path fill="#A94624" d="M332.6,206.1c0,0,4.9-0.9,9.3,1c4.4,1.9,6.4,2.6,6.2,0S338.5,201.4,332.6,206.1z"/>
							<path fill="#A94624" d="M380.6,218.9c0,0-3.8-3.2-8.5-3.8c-4.7-0.5-6.8-0.9-5.3-3.1C368.2,209.9,377.8,211.9,380.6,218.9z"/>
							<g>
								<path fill="#A94624" d="M324.7,204.8c-1,3.5-1.7,8.2-1.9,13.5c7.4-10.3,14.1-27.7,17.3-36.9
									C331.6,186.9,327,196.5,324.7,204.8z"/>
								<path fill="#A94624" d="M384.6,233.3c2.1-4.4,3.6-8.4,4.4-11.3c2-7.6,2.8-17.6-0.9-26.4
									C386.3,205.1,383.8,221.3,384.6,233.3z"/>
							</g>
							<path fill="#FAC5C3" d="M355.8,217.2c-3.7-1-8,17.1-8,17.1s-2.4-1.9-2.8,0.4s2.5,2.3,2.5,2.3s0.3,2.8,2.2,3.3
								c1.9,0.5,3.7-1.7,3.7-1.7s3.5,1.4,3.4-0.9c-0.1-2.3-2.3-1.6-2.3-1.6S360,218.3,355.8,217.2z"/>
							<g>
								<path fill="#A94624" d="M350,247.9c-0.7,0-1.4-0.1-2.2-0.3c-4.9-1.3-7.3-6.5-7.4-6.7l0.9-0.4c0,0,2.3,5,6.7,6.2
									c4.4,1.2,7.8-2.2,7.8-2.2l0.7,0.7C356.4,245.3,353.8,247.9,350,247.9z"/>
							</g>
							<path fill="#F7AEC5" d="M367,231.6c0.1-0.4,0.4-0.9,0.9-1.3c2.4-2,10.3-0.4,8.8,3.7C375.4,237.8,366.2,234.8,367,231.6z"/>
							<path fill="#F7AEC5" d="M329.6,221.6c0.1-0.4,0.4-0.9,0.9-1.3c2.4-2,10.3-0.4,8.8,3.7C338,227.8,328.8,224.8,329.6,221.6z"/>
							<g>
								<g>
									<path fill="#A94624" d="M340.5,217.8c-0.4,0-0.8-0.1-1.3-0.2c-4.3-1.2-5.5-5.9-5.5-6.1l1-0.2c0,0,1,4.4,4.8,5.4
										c3.6,1,5.1-3.2,5.2-3.4l0.9,0.3C345.1,215.2,343.4,217.8,340.5,217.8z"/>
								</g>
								<path fill="#A94624" d="M334.7,211.3c0,0-2.5,0.6-4.7-1.3c0,0,0.9,2.5,4.5,2.4l0.3,0.5c0,0-2.2,1.8-4.2,1
									c0,0,2.3,1.8,4.7-0.2l0.4,0.7c0,0-1,1.8-2.5,2.2c0,0,2,0.3,3-1.5C336,215,334.9,212.6,334.7,211.3z"/>
							</g>
							<g>
								<g>
									<path fill="#A94624" d="M368.7,225.4c0.4,0.2,0.8,0.4,1.2,0.5c4.3,1.2,7.7-2.4,7.8-2.6l-0.7-0.7c0,0-3.1,3.3-6.9,2.3
										c-3.6-1-2.8-5.4-2.8-5.5l-1-0.2C366.1,220.8,366.3,224,368.7,225.4z"/>
								</g>
								<path fill="#A94624" d="M377,222.6c0,0,1.9,1.7,4.7,1.3c0,0-2,1.7-5-0.2l-0.5,0.3c0,0,1,2.7,3.2,2.9c0,0-2.9,0.4-3.9-2.6
									l-0.6,0.4c0,0-0.1,2,1,3.1c0,0-1.9-0.7-1.8-2.8C374.1,225.2,376.2,223.7,377,222.6z"/>
							</g>
						</g>
						<g>
							<g>
								<path fill="#E6E7E8" d="M387.3,227l2-6.9c0,0-15.2-36.3-47.7-49.2c0,0,10.6-4.8,16.9-5.3c6.3-0.4,26.2,5.2,33,11.2
									c6.8,6.1,12.1,31.8,9,39.5S387.3,227,387.3,227z"/>
								<path fill="#D1D3D4" d="M384.3,191.6c7.6,12,12.4,21.9,14.8,27.3c0.5-0.8,1-1.6,1.4-2.5c0.1-0.3,0.2-0.6,0.3-1
									C393.6,202.5,384.3,191.6,384.3,191.6z"/>
							</g>
							<g>
								<path fill="#F1F2F2" d="M323.6,209.9l2-7.3c0,0,33.5-25,70-19.6c0,0-6.1-14.2-11.6-17.9s-27.6-4.9-37-2.9
									c-9.4,1.9-27.8,22.7-29,31.3S323.6,209.9,323.6,209.9z"/>
								<path fill="#E6E7E8" d="M325.2,180c7.2-2.4,19.4-6,33.9-8.7c0,0-11.6,0.6-30.5,4.6C327.4,177.3,326.3,178.7,325.2,180z"/>
							</g>
						</g>
					</g>
					<path fill="#E175AE" d="M381.9,338.5c0.7-19.9,3.6-34.8,5.6-42.9c-1,0.1-2.2,0.2-3.5,0.3c-3.9,14.9-5.3,32.7-5.7,43.3
						c-5,2.9-17.3,9.4-29.8,9.4c-12.7,0-23.5-6.8-27.5-9.6c-0.5-10.6-1.8-28.2-5.7-42.9c-1.2,0-2.4-0.1-3.5-0.1
						c2,8.2,4.8,23.1,5.5,42.8l-11.2,5.5l1.5,26.5h78.6l2.1-28.7L381.9,338.5z"/>
					<g>
						<path fill="#FFF6D4" d="M314.5,237c-0.5-14.8,7.5-19.1,13-13.3c5.6,5.8,4,29.6-4,31C315.5,256.1,314.7,245.3,314.5,237z"/>
						<path fill="#FFEFC8" d="M327.5,223.7c-0.4-0.4-0.8-0.8-1.2-1.1c5.3,6.1,3.7,29.4-4.2,30.8c-1.8,0.3-3.2,0-4.3-0.7
							c1.3,1.6,3.1,2.5,5.7,2C331.5,253.3,333.1,229.6,327.5,223.7z"/>
					</g>
					<path fill="#FDDCCF" d="M300.5,277.1c0,0-2-17.3,2.9-28.8c4.8-11.4,14.4-21.1,17-22.1c2.6-1-0.8,5.8-0.8,5.8s1.5-1.8,2.9-0.9
						c1.4,0.9-1.6,7.2-1.6,7.2s2.3-2.3,3.3-1.1s-3,10.9-3,10.9s1.8-3.6,3-1.6c1.1,2-5.1,10.5-5,18.3c0.1,7.7-3.7,15-3.7,15
						L300.5,277.1z"/>
					<path fill="#FDDCCF" d="M315.4,279.8c0,0,2.3,100.9-18.6,106.7c-15.5,4.3-14.7-17.8-14.7-17.8s4.3,1.5,7-4.6
						c2.7-6.2,11.3-87,11.3-87L315.4,279.8z"/>
					<path fill="#FDDCCF" d="M303.4,294.7c0,0-11.5-4.6-18.1,5.3c-6.6,9.9-3.1,70.7-3.1,70.7h17.9c0,0-1-41.9,5.4-38.6L303.4,294.7z
						"/>
					<path fill="#FDDCCF" d="M391.7,294.9c0,0,17.8-6.3,23.2,9.6s-9.3,82.6-9.3,82.6h-21.2L391.7,294.9z"/>
					<path fill="#FAC5C3" d="M325.7,302.2c0,0,6.5,5.8,15.9,7.4C341.6,309.5,337.9,304.5,325.7,302.2z"/>
					<path fill="#FAC5C3" d="M371.5,302.2c0,0-6.5,5.8-15.9,7.4C355.6,309.5,359.3,304.5,371.5,302.2z"/>
				</g>
			</g>
			<rect x="511.9" y="151.9" fill="#EF4136" width="89.7" height="60"/>
			<rect x="511.9" y="220.6" fill="#D7DF23" width="89.7" height="60"/>
			<rect x="511.9" y="289.2" fill="#FFDE17" width="89.7" height="60"/>
			<rect x="511.9" y="357.8" fill="#2BB673" width="89.7" height="60"/>
			<rect x="511.9" y="426.5" fill="#00AEEF" width="89.7" height="39.7"/>
			<rect x="243.9" y="120.9" fill="#E6E7E8" width="256.3" height="22"/>
			<rect x="511.9" y="120.9" fill="#E6E7E8" width="91.2" height="22"/>
			<rect x="196.8" y="387.8" fill="#E6E7E8" width="187.1" height="22"/>
			<rect x="196.8" y="426.5" fill="#E6E7E8" width="187.1" height="6.3"/>
			<rect x="196.8" y="440.1" fill="#E6E7E8" width="187.1" height="6.3"/>
			<rect x="196.8" y="453.6" fill="#E6E7E8" width="187.1" height="6.3"/>
			<path fill="#EF4136" d="M196.8,127.9v8c0,3.9,3.1,7,7,7h19.1c3.9,0,7-3.1,7-7v-8c0-3.9-3.1-7-7-7h-19.1
				C200,120.9,196.8,124,196.8,127.9z"/>
		</g>
	</g>
</g>
<g id="Layer_3">
</g>
</svg>
