<?xml version="1.0" encoding="UTF-8"?>
<svg width="368px" height="80px" viewBox="0 0 368 80" version="1.1" xmlns="http://www.w3.org/2000/svg" xmlns:xlink="http://www.w3.org/1999/xlink">
    <title>mindhug_logo</title>
    <g id="mindhug_logo" stroke="none" stroke-width="1" fill="none" fill-rule="evenodd">
        <path d="M136.918,61.458 L136.918,36.982 L146.082,61.458 L154.086,61.458 L163.192,37.04 L163.192,61.458 L173.11,61.458 L173.11,20.742 L161.452,20.742 L150.142,48.93 L138.716,20.742 L127,20.742 L127,61.458 L136.918,61.458 Z M181.232,25.73 C184.712,25.73 187.09,23.352 187.09,20.394 C187.09,17.378 184.712,15 181.232,15 C177.694,15 175.316,17.378 175.316,20.394 C175.316,23.352 177.694,25.73 181.232,25.73 Z M186.162,61.458 L186.162,29.094 L176.244,29.094 L176.244,61.458 L186.162,61.458 Z M199.272,61.458 L199.272,43.884 C199.272,39.476 201.708,37.04 205.478,37.04 C209.248,37.04 211.684,39.476 211.684,43.884 L211.684,61.458 L221.544,61.458 L221.544,42.55 C221.544,33.85 216.556,28.746 209.074,28.746 C204.724,28.746 201.244,30.66 199.272,33.386 L199.272,29.094 L189.354,29.094 L189.354,61.458 L199.272,61.458 Z M236.742,61.922 C241.498,61.922 244.92,59.776 246.718,56.818 L246.718,61.458 L256.636,61.458 L256.636,18.538 L246.718,18.538 L246.718,33.56 C244.746,30.602 241.034,28.63 236.742,28.63 C228.796,28.63 222.474,35.01 222.474,45.218 C222.474,55.426 228.796,61.922 236.742,61.922 Z M239.642,53.28 C235.93,53.28 232.566,50.38 232.566,45.218 C232.566,40.056 235.93,37.272 239.642,37.272 C243.412,37.272 246.718,40.114 246.718,45.276 C246.718,50.438 243.412,53.28 239.642,53.28 Z M269.746,61.458 L269.746,44.696 L285.174,44.696 L285.174,61.458 L295.092,61.458 L295.092,20.742 L285.174,20.742 L285.174,36.692 L269.746,36.692 L269.746,20.742 L259.828,20.742 L259.828,61.458 L269.746,61.458 Z M310.464,61.806 C314.814,61.806 318.294,59.834 320.266,57.05 L320.266,61.458 L330.184,61.458 L330.184,29.094 L320.266,29.094 L320.266,46.668 C320.266,51.076 317.83,53.512 314.002,53.512 C310.29,53.512 307.796,51.076 307.796,46.668 L307.796,29.094 L297.936,29.094 L297.936,48.002 C297.936,56.644 302.982,61.806 310.464,61.806 Z M349.326,77.408 C360.52,77.408 365.508,70.042 365.508,61.4 L365.508,29.094 L355.59,29.094 L355.59,33.676 C353.85,30.776 350.37,28.63 345.614,28.63 C337.668,28.63 331.346,35.01 331.346,45.218 C331.346,55.426 337.668,61.922 345.614,61.922 C350.37,61.922 353.792,59.66 355.59,56.818 L355.59,61.4 C355.59,66.852 352.632,68.824 348.862,68.824 C345.44,68.824 343.004,67.258 342.366,64.822 L332.564,64.822 C333.434,72.536 339.698,77.408 349.326,77.408 Z M348.514,53.28 C344.802,53.28 341.438,50.38 341.438,45.218 C341.438,40.056 344.802,37.272 348.514,37.272 C352.284,37.272 355.59,40.114 355.59,45.276 C355.59,50.438 352.284,53.28 348.514,53.28 Z" id="MindHug" fill="#000000" fill-rule="nonzero"></path>
        <path d="M57.6940259,22.4582015 C55.3577118,23.110183 50.0780506,26.9380475 47.4051861,29.9174212 C42.6157816,35.2575033 40.5709561,40.5180783 40.0476091,48.8482631 C39.6466851,55.233797 43.165104,62.4363124 49.818184,68.8482734 C51.015761,70.0022569 51.9955968,70.9872877 51.9955968,71.0366409 C51.9955968,71.2503165 49.1047651,72.0003267 46.9675577,72.3415074 C31.749837,74.7704294 15.7062128,68.1882734 10.0892107,57.2116512 C5.26423126,47.783951 8.49906699,36.9775239 18.0618391,30.5761789 C18.5413668,30.2552138 18.9742518,29.8827497 19.0243955,29.7484684 C19.2530916,29.1354499 20.9519931,22.5023596 20.8950732,22.4455526 C20.8117261,22.3622056 18.8167056,23.4924725 17.6507508,24.2835916 C13.5598575,27.0580988 8.67050436,32.1663226 6.42623331,36.0098853 C-3.38388065,52.81199 8.7483175,72.4338894 31.6582456,76.8202241 C39.0589643,78.2372364 46.0828144,77.8856656 54.1186871,75.697298 C58.4669623,74.5129345 58.1952374,74.505029 63.1131635,75.9549058 C77.5704838,80.2170105 95.0360896,76.2518155 104.796274,66.4916306 C117.770402,53.5193103 115.074611,35.3661481 98.7010998,25.4411892 C96.8530095,24.3210865 92.8605968,22.4025239 92.7037282,22.5592795 C92.6440978,22.6184582 93.6374859,26.2307272 93.8847035,26.8542487 C94.4641799,28.3151933 94.6327939,28.4980372 96.3703196,29.54699 C100.845761,32.2480886 103.315679,34.6275444 105.285289,38.1362508 C109.785802,46.148068 109.229026,53.3238175 103.525741,60.8355526 C96.8016235,69.6914561 82.378184,74.4023699 68.5883175,72.2470927 C67.1794366,72.0270927 64.5516337,71.4236738 64.4173524,71.2893925 C64.3809869,71.253027 64.9778555,70.6385403 65.743338,69.924105 C70.9894571,65.0275239 72.0874243,63.5959428 74.9684304,57.8984171 C76.1253504,55.6101009 76.2575988,55.1835403 76.7023421,52.3000495 C77.1016851,49.7116614 76.9827631,44.9553473 76.4495906,42.1847929 C75.0422908,34.8728421 68.6278452,26.9798339 61.0528658,23.2385916 C59.1443545,22.295799 58.6708124,22.1860249 57.6940259,22.4582015 M59.9746625,28.5331604 C70.0667672,33.7732939 74.3763052,43.2642384 71.4293442,53.7586224 C69.9506686,59.0240536 66.5403298,63.6906964 61.948338,66.7325239 C58.8469931,68.7869489 57.8061717,68.7818668 55.0038822,66.6966101 C41.5283175,56.6685403 42.7219417,37.0011276 57.3299191,28.3669181 C58.5365311,27.6536122 58.2458329,27.6354294 59.9746625,28.5331604" id="Shape" fill="#44DCE4"></path>
        <path d="M54.3541594,2.01837192 C54.1390157,2.04282264 53.4354222,2.11861422 52.790104,2.18653414 C38.0141902,3.74294379 27.1963565,10.3786768 21.5856789,21.3283863 C20.9969417,22.476723 18.9854325,29.3094849 19.0379479,29.9824725 C19.4435023,35.210183 20.9104325,40.2714253 22.9056789,43.3262405 C26.7267672,49.1767949 30.6901553,52.2553267 38.8275577,55.6925444 C39.8411614,56.120912 40.828338,56.5393411 41.0214592,56.6225752 L41.3724653,56.7741358 L41.1589027,56.2128421 C40.7004941,55.006569 40.4047138,53.6341666 39.9873011,50.7794746 C39.9580506,50.5796902 39.8735742,50.4162713 39.7997138,50.4162713 C39.3207508,50.4146902 35.8842107,48.7430064 34.4152477,47.7969387 C30.0185228,44.9655116 26.3042723,40.435183 24.8468288,36.1264356 C21.5955044,26.5155526 28.0373935,15.4383042 39.9442723,10.1647528 C40.4667159,9.93384317 41.044837,9.67607726 41.2291491,9.59241401 C41.8661101,9.30385036 44.8058432,8.30400231 45.4736358,8.14888424 C48.9109664,7.35035652 50.0568185,7.12852695 51.5056789,6.98008342 C52.1200526,6.91733599 52.9998267,6.81940888 53.460607,6.76218403 C54.4999602,6.63350436 59.1411922,6.62799307 60.2745085,6.75389451 C60.7352888,6.8048288 61.6399089,6.90350128 62.2851142,6.97299102 C69.3362949,7.73008239 77.3592929,11.2893617 82.2035844,15.8097518 C93.0276296,25.9101009 91.1888,39.8672261 77.7960177,49.2668052 C77.3762333,49.5613432 77.011336,49.9027497 76.9853606,50.0258504 C76.9592723,50.1487251 76.8771676,50.8019489 76.8025167,51.4773083 C76.7283175,52.1531194 76.5257097,53.4079551 76.3523524,54.2660454 C76.1789951,55.1242487 76.0467467,55.8358606 76.058605,55.8473801 C76.0921471,55.8796799 80.6686666,52.7933555 81.78572,51.9846183 C89.1682559,46.643068 92.7125372,41.1986327 93.892835,33.388181 C94.0875372,32.098222 94.375412,30.505029 94.5321676,29.8474007 L94.8172189,28.6518565 L94.4654222,28.0288996 C93.9473832,27.1108401 93.7052477,26.4409017 93.1698165,24.4401214 C92.5225783,22.0223801 91.5247857,20.1320516 89.1102066,16.7503986 C82.8372703,7.96456083 70.5051861,2.24057418 57.3702374,2.01837192 C55.9262333,1.99387603 54.5690773,1.99387603 54.3541594,2.01837192" id="Path" fill="#93DCB5"></path>
    </g>
</svg>