<?xml version="1.0" standalone="no"?>
<!DOCTYPE svg PUBLIC "-//W3C//DTD SVG 20010904//EN"
 "http://www.w3.org/TR/2001/REC-SVG-20010904/DTD/svg10.dtd">
<svg version="1.0" xmlns="http://www.w3.org/2000/svg"
 width="512.000000pt" height="512.000000pt" viewBox="0 0 512.000000 512.000000"
 preserveAspectRatio="xMidYMid meet">
<metadata>
Created by potrace 1.11, written by Peter Selinger 2001-2013
</metadata>
<g transform="translate(0.000000,512.000000) scale(0.100000,-0.100000)"
fill="#000000" stroke="none">
<path d="M2382 4021 c-8 -4 -27 -7 -43 -5 -16 2 -29 0 -29 -4 0 -4 -12 -7 -27
-8 -16 -1 -50 -4 -78 -8 -27 -3 -61 -7 -75 -9 -14 -1 -27 -4 -30 -7 -3 -3 -36
-13 -75 -23 -38 -10 -94 -29 -122 -42 -29 -13 -53 -22 -53 -19 0 8 -244 -121
-296 -156 -92 -62 -199 -158 -262 -235 -52 -62 -135 -211 -135 -241 0 -7 -13
-18 -29 -23 -16 -6 -47 -24 -68 -41 -21 -16 -42 -30 -48 -30 -6 0 -12 -4 -14
-8 -2 -5 -31 -30 -65 -56 -93 -70 -287 -268 -275 -281 3 -3 0 -5 -6 -5 -10 0
-100 -140 -105 -163 -1 -6 -10 -20 -20 -31 -15 -18 -22 -37 -18 -58 0 -5 -3
-8 -7 -8 -5 0 -9 -6 -10 -12 0 -7 -10 -44 -22 -83 -11 -38 -22 -88 -24 -110
-2 -22 -5 -40 -6 -40 -9 0 -6 -41 3 -47 7 -5 8 -8 1 -8 -10 0 -13 -67 -3 -85
3 -6 5 -22 4 -37 -1 -16 3 -28 9 -28 6 0 4 -5 -4 -10 -12 -8 -12 -10 -1 -10 8
0 12 -3 8 -6 -3 -3 0 -26 8 -50 7 -24 11 -44 8 -44 -3 0 -1 -6 4 -13 5 -6 16
-32 23 -57 21 -65 112 -238 134 -252 6 -4 8 -8 4 -8 -8 0 33 -50 90 -109 23
-24 42 -46 42 -50 0 -3 22 -22 48 -41 26 -19 58 -45 73 -58 34 -30 141 -94
157 -95 6 0 12 -4 12 -7 0 -7 151 -75 210 -95 3 -1 12 -4 20 -8 47 -19 219
-61 300 -74 145 -22 160 -24 280 -27 63 -1 123 1 133 6 11 6 17 5 17 -2 0 -7
5 -8 13 -3 6 4 23 8 37 8 14 0 31 4 38 8 7 5 12 3 12 -5 0 -10 3 -9 10 2 5 8
12 11 15 8 4 -4 17 -3 29 2 13 5 30 4 40 -2 13 -7 17 -7 12 0 -3 6 12 12 38
16 24 4 95 20 158 37 62 16 119 30 126 31 6 1 12 5 12 9 0 11 61 -1 70 -13 3
-4 17 -9 30 -12 14 -3 64 -17 112 -30 80 -22 131 -33 183 -39 11 -2 26 -7 34
-11 10 -7 12 -6 6 4 -6 10 -4 11 6 4 8 -5 32 -9 54 -10 22 -1 41 -3 43 -4 7
-7 28 -5 40 3 7 6 12 6 12 0 0 -8 101 -10 120 -3 16 6 36 4 43 -5 4 -6 10 -6
15 2 4 6 23 10 45 8 20 -2 37 -1 37 3 0 4 21 7 48 7 26 0 54 3 63 7 10 4 34 9
55 11 22 2 46 7 54 10 8 3 33 8 55 12 35 6 105 26 145 42 8 3 21 5 28 4 6 -1
12 2 12 7 0 6 12 13 28 17 43 11 165 66 187 84 11 9 37 26 58 36 20 11 47 29
60 40 12 11 40 33 62 50 61 46 145 133 212 222 63 81 140 213 126 213 -5 0 -3
4 3 8 15 10 41 87 59 172 18 86 22 184 11 284 -8 74 -50 232 -68 253 -6 7 -7
13 -4 13 4 0 0 7 -8 16 -9 8 -16 23 -16 32 0 9 -9 28 -20 42 -11 14 -20 31
-20 38 0 7 -7 15 -15 18 -8 4 -15 10 -15 15 0 11 -81 122 -93 128 -4 1 -24 20
-44 41 -40 44 -159 137 -218 171 -22 13 -42 26 -45 29 -3 3 -53 29 -111 58
-80 39 -109 59 -118 79 -62 138 -224 338 -343 423 -27 18 -48 37 -48 42 0 4
-7 8 -15 8 -8 0 -15 5 -15 12 0 6 -3 9 -6 5 -3 -3 -28 10 -55 29 -27 19 -49
31 -49 27 0 -5 -4 -3 -8 2 -8 12 -101 57 -167 82 -22 8 -53 21 -70 28 -37 16
-88 30 -185 49 -133 26 -227 39 -297 39 -18 0 -33 4 -33 7 0 4 -7 7 -15 7 -8
0 -15 -5 -15 -11 0 -7 -3 -7 -8 -1 -4 6 -34 10 -67 10 -33 0 -63 -4 -67 -10
-5 -6 -8 -5 -8 3 0 14 -9 15 -28 3z m353 -225 c28 -4 57 -8 65 -10 8 -1 33 -6
55 -11 133 -25 319 -101 440 -180 39 -24 77 -48 85 -52 8 -4 21 -15 28 -25 7
-10 18 -18 23 -18 16 0 140 -128 181 -187 34 -47 87 -142 89 -160 2 -9 3 -12
19 -64 6 -20 13 -47 16 -60 10 -41 12 -229 2 -235 -5 -3 -6 -14 -3 -25 4 -11
2 -19 -4 -19 -6 0 -10 -3 -9 -7 6 -22 -55 -169 -77 -185 -7 -5 -7 -8 0 -8 6 0
6 -3 -1 -8 -6 -4 -24 -27 -41 -52 -56 -81 -205 -225 -272 -263 l-31 -18 -1 58
c-1 68 -6 126 -14 168 -4 17 -9 44 -12 60 -3 17 -10 33 -16 37 -7 4 -9 8 -5 8
9 0 -22 81 -60 160 -15 30 -25 59 -24 65 2 5 1 7 -3 3 -4 -4 -28 23 -53 60
-55 80 -187 213 -275 275 -66 47 -206 123 -219 119 -5 -1 -8 2 -8 6 0 4 -16 8
-35 8 -19 0 -35 -3 -35 -7 0 -4 -17 -14 -37 -23 -114 -50 -287 -186 -380 -297
-62 -75 -69 -84 -76 -99 -4 -8 -18 -33 -32 -55 -29 -47 -57 -105 -76 -157 -7
-21 -17 -38 -22 -38 -4 0 -5 -5 -2 -10 4 -6 3 -19 -1 -28 -9 -21 -11 -30 -19
-67 -13 -57 -15 -80 -21 -180 -6 -109 -11 -136 -22 -118 -4 6 -14 13 -22 15
-8 2 -19 7 -25 11 -26 20 -125 75 -125 70 0 -3 -8 4 -19 15 -10 12 -23 22 -30
22 -6 0 -11 3 -11 8 0 4 -15 16 -34 26 -18 10 -39 29 -46 42 -7 13 -16 21 -20
19 -7 -4 -24 14 -110 115 -16 19 -30 38 -30 43 0 4 -11 25 -25 47 -14 22 -25
46 -25 55 0 8 -4 15 -9 15 -5 0 -13 15 -16 33 -4 17 -10 36 -13 42 -16 26 -25
242 -12 284 4 14 13 45 20 69 7 23 17 42 22 42 5 0 6 5 3 10 -3 6 3 23 14 39
12 16 21 33 21 39 0 15 89 144 116 168 13 12 24 26 24 33 0 6 3 11 8 11 4 0
35 27 70 60 35 33 92 77 128 97 35 21 64 41 64 45 0 4 5 8 11 8 5 0 31 10 57
22 26 12 49 23 52 23 3 1 18 7 33 13 16 7 34 12 42 12 8 0 17 5 20 10 4 6 11
8 16 5 5 -4 9 -1 9 5 0 7 6 10 13 7 6 -2 19 -1 28 4 9 4 27 10 40 13 13 3 35
8 49 11 34 7 67 13 115 19 92 12 130 18 133 20 5 5 297 -2 347 -8z m-86 -822
c20 -9 38 -20 41 -23 3 -4 32 -24 65 -46 62 -41 149 -122 200 -188 48 -61 115
-196 118 -237 1 -11 4 -20 8 -20 17 0 29 -236 16 -320 -9 -54 -12 -70 -19 -90
-3 -8 -14 -37 -23 -65 -28 -79 -65 -156 -86 -178 -10 -12 -19 -26 -19 -31 0
-6 -20 -32 -44 -58 -24 -27 -42 -48 -39 -48 2 0 -10 -12 -28 -27 -19 -16 -40
-35 -49 -43 -9 -8 -32 -26 -53 -40 -20 -14 -37 -28 -37 -32 0 -5 -6 -8 -14 -8
-7 0 -25 -9 -38 -20 -39 -30 -82 -34 -126 -10 -59 32 -74 43 -109 79 -18 19
-33 31 -33 27 0 -4 -21 17 -47 46 -25 29 -49 55 -52 58 -16 13 -61 80 -61 90
0 6 -9 20 -20 32 -10 12 -17 25 -14 30 3 4 1 8 -3 8 -10 0 -41 79 -49 125 -3
16 -7 32 -9 36 -6 9 -18 78 -19 107 0 12 -5 22 -10 22 -6 0 -4 5 4 10 8 5 10
10 4 10 -12 0 -12 135 -1 147 4 3 2 12 -4 20 -9 10 -8 13 1 13 7 0 10 8 7 20
-3 11 -2 20 3 20 4 0 8 10 8 23 0 42 52 188 64 181 7 -5 9 -2 5 9 -3 8 1 21 8
27 8 7 13 16 10 20 -3 5 -2 10 2 12 5 1 22 23 38 48 33 50 32 48 97 116 53 56
99 95 166 140 51 35 80 37 141 8z m1401 -44 c3 -3 25 -18 50 -32 25 -15 59
-39 76 -55 17 -15 42 -37 55 -49 13 -12 40 -40 58 -64 19 -23 40 -48 46 -54
28 -29 106 -201 120 -265 3 -11 7 -30 9 -41 5 -19 19 -156 18 -175 -1 -40 -15
-118 -29 -165 -9 -30 -17 -58 -17 -62 -1 -4 -8 -15 -16 -25 -8 -10 -23 -35
-33 -56 -44 -95 -192 -258 -303 -332 -32 -22 -61 -43 -62 -48 -2 -4 -8 -5 -13
-1 -5 3 -9 0 -9 -6 0 -6 -4 -8 -10 -5 -5 3 -10 2 -10 -3 0 -10 -143 -75 -166
-75 -8 0 -14 -4 -14 -8 0 -4 -15 -11 -32 -14 -18 -4 -37 -11 -43 -15 -8 -7
-83 -24 -190 -44 -51 -10 -123 -19 -152 -20 -18 0 -33 -4 -33 -9 0 -5 -6 -4
-14 2 -8 7 -17 8 -20 3 -3 -5 -51 -7 -108 -6 -131 4 -186 11 -303 35 -92 20
-90 17 -57 47 94 86 122 110 122 105 0 -4 16 15 36 40 20 26 41 47 46 47 5 0
6 5 3 10 -3 5 -2 10 3 10 5 0 22 19 38 43 16 23 33 45 39 49 5 4 6 8 1 8 -5 0
0 10 11 23 22 23 83 151 83 172 0 7 21 26 48 41 26 15 50 32 54 38 4 6 8 8 8
4 0 -7 110 63 164 105 117 90 235 211 294 302 26 39 45 73 44 78 -1 4 2 7 7 7
9 0 66 137 73 175 1 11 6 23 11 26 7 5 10 17 24 89 4 19 6 76 5 127 l-1 92 42
-21 c23 -12 44 -25 47 -28z m-2981 -72 c-1 -77 23 -214 50 -283 27 -70 93
-195 103 -195 6 0 8 -3 5 -7 -14 -13 122 -162 208 -228 58 -44 172 -118 182
-118 4 1 19 -7 33 -16 40 -28 191 -98 235 -110 32 -8 43 -18 57 -48 10 -21 36
-69 58 -108 22 -38 44 -79 49 -90 12 -26 46 -68 99 -122 23 -24 42 -48 42 -54
0 -5 5 -9 10 -9 6 0 28 -18 50 -40 22 -22 45 -40 51 -40 13 0 7 -35 -6 -36 -6
0 -28 -6 -50 -12 -46 -13 -104 -22 -182 -27 -28 -1 -56 -6 -62 -10 -6 -3 -11
0 -11 7 0 8 -3 9 -8 3 -9 -12 -152 -14 -152 -2 0 5 -7 4 -15 -3 -12 -10 -15
-10 -16 1 0 10 -2 11 -6 1 -2 -6 -9 -9 -15 -6 -5 3 -33 8 -61 9 -29 2 -52 4
-52 5 0 1 -12 4 -26 5 -110 14 -251 51 -311 81 -15 8 -30 14 -33 13 -12 -2
-165 75 -165 83 0 4 -5 8 -10 8 -31 0 -260 183 -260 208 0 5 -10 14 -22 21
-23 12 -68 74 -68 92 0 5 -4 9 -10 9 -5 0 -10 7 -10 15 0 8 -5 15 -12 15 -6 0
-8 3 -5 7 4 3 1 13 -7 22 -22 26 -53 119 -71 216 -1 6 -3 12 -4 15 -8 17 -5
120 4 120 7 0 7 3 0 8 -9 6 -11 26 -5 42 1 3 3 16 5 30 9 65 32 151 54 202 26
61 108 188 126 195 9 3 21 15 28 28 11 21 102 100 157 137 42 28 49 23 49 -34z"/>
</g>
</svg>
