<?xml version="1.0" standalone="no"?>
<!DOCTYPE svg PUBLIC "-//W3C//DTD SVG 20010904//EN"
 "http://www.w3.org/TR/2001/REC-SVG-20010904/DTD/svg10.dtd">
<svg version="1.0" xmlns="http://www.w3.org/2000/svg"
 width="260.000000pt" height="260.000000pt" viewBox="0 0 260.000000 260.000000"
 preserveAspectRatio="xMidYMid meet">
<metadata>
Created by potrace 1.11, written by Peter Selinger 2001-2013
</metadata>
<g transform="translate(0.000000,260.000000) scale(0.100000,-0.100000)"
fill="#000000" stroke="none">
<path d="M1208 2015 c-2 -1 -29 -5 -61 -9 -195 -20 -427 -162 -500 -306 -19
-38 -40 -62 -65 -76 -58 -34 -176 -148 -219 -212 -108 -163 -107 -351 4 -514
47 -69 68 -91 126 -134 197 -148 494 -190 772 -109 40 12 59 13 74 6 81 -44
288 -58 439 -31 175 33 273 81 383 190 113 112 163 233 153 365 -13 176 -127
331 -314 425 -46 23 -63 40 -95 92 -99 160 -280 270 -498 304 -43 6 -194 13
-199 9z m179 -110 c187 -21 385 -148 450 -290 38 -83 38 -185 0 -269 -25 -54
-151 -196 -174 -196 -5 0 -10 23 -12 52 -6 147 -109 307 -251 393 -80 49 -96
50 -156 16 -150 -87 -258 -244 -271 -392 -8 -103 -5 -99 -54 -73 -93 48 -164
117 -210 204 -18 36 -23 61 -23 125 -1 105 31 173 123 265 98 96 217 148 387
168 71 8 100 7 191 -3z m62 -473 c73 -73 104 -145 105 -245 1 -101 -6 -135
-46 -210 -34 -63 -131 -159 -178 -175 -36 -13 -69 4 -133 66 -183 178 -153
474 62 630 l43 31 50 -25 c28 -14 72 -47 97 -72z m576 52 c131 -87 197 -209
191 -351 -4 -90 -39 -158 -125 -243 -80 -80 -160 -123 -277 -151 -130 -31
-252 -32 -372 -4 l-24 6 29 22 c54 42 113 113 148 178 29 56 44 72 96 104 168
103 279 269 279 415 0 27 3 50 8 50 4 0 25 -12 47 -26z m-1444 -26 c7 -113 51
-214 130 -299 43 -46 139 -108 221 -143 59 -25 65 -31 96 -90 18 -35 60 -91
93 -124 33 -33 57 -62 52 -65 -17 -10 -102 -20 -183 -22 -213 -4 -381 63 -515
203 -106 111 -122 288 -40 427 24 42 118 135 136 135 5 0 10 -10 10 -22z"/>
</g>
</svg>
